<svg width="198" height="131" viewBox="0 0 198 131" fill="none" xmlns="http://www.w3.org/2000/svg">
<rect y="0.889771" width="198" height="129.938" rx="19.5556" fill="url(#paint0_linear_125_223)"/>
<path d="M96.4028 29.6121L98.3889 26.6329L100.375 29.6121L98.3889 32.5912L96.4028 29.6121Z" fill="white"/>
<g filter="url(#filter0_d_125_223)">
<path fill-rule="evenodd" clip-rule="evenodd" d="M98.3886 21.6676L103.85 29.4871L98.3886 37.2789L92.9268 29.4871L98.3886 21.6676ZM94.1223 29.4861L98.3886 35.5724L102.655 29.4861L98.3886 23.3781L94.1223 29.4861Z" fill="url(#paint1_linear_125_223)"/>
</g>
<path d="M52.4588 62.8067C52.4588 63.1548 52.4185 63.5137 52.3379 63.8835C52.2708 64.2533 52.1836 64.5905 52.0762 64.8951C51.9017 64.9386 51.7406 65.0365 51.5929 65.1888C51.4587 65.3411 51.3513 65.4389 51.2707 65.4825C51.0962 65.526 50.8881 65.5477 50.6465 65.5477C50.4183 65.526 50.2102 65.526 50.0223 65.5477C49.6598 65.5912 49.2974 65.6565 48.9349 65.7435C48.5859 65.8305 48.2369 65.9393 47.8878 66.0698C47.861 66.0698 47.8342 66.0807 47.8073 66.1024C47.7805 66.1024 47.767 66.1242 47.767 66.1677C47.767 66.2112 47.7737 66.2547 47.7872 66.2982C47.8006 66.3417 47.8073 66.3853 47.8073 66.4288C47.8073 66.494 47.767 66.5267 47.6865 66.5267C47.5388 66.5267 47.4381 66.4505 47.3844 66.2982C46.9549 66.4723 46.5253 66.6572 46.0957 66.853C45.6662 67.027 45.2366 67.201 44.807 67.3751C44.5922 67.4403 44.3774 67.5056 44.1627 67.5709C43.9613 67.6361 43.7532 67.7231 43.5384 67.8319C43.431 67.8754 43.3236 67.9516 43.2163 68.0603L42.8941 68.3866C42.827 68.3649 42.7665 68.354 42.7129 68.354C42.6592 68.3322 42.6055 68.3214 42.5518 68.3214C42.3236 68.3214 42.0819 68.3975 41.8269 68.5498C41.5718 68.6803 41.3503 68.8652 41.1624 69.1045H41.0214C40.8872 69.1045 40.7932 69.0719 40.7395 69.0066C40.6187 68.9849 40.5449 69.0501 40.518 69.2024C40.4912 69.3329 40.4442 69.4526 40.3771 69.5614C39.9206 69.6266 39.4709 69.7571 39.0279 69.9529C38.5849 70.1487 38.1487 70.3663 37.7191 70.6056C37.2895 70.8231 36.8532 71.0515 36.4102 71.2908C35.9807 71.5084 35.5444 71.6824 35.1014 71.8129C35.0477 72.248 35.0208 72.7483 35.0208 73.3139C35.0208 73.749 35.041 74.2494 35.0812 74.815C35.1349 75.3806 35.2423 75.8592 35.4034 76.2508V76.316C35.4034 76.4248 35.3766 76.5009 35.3229 76.5444C35.2692 76.5879 35.2423 76.6641 35.2423 76.7729C35.2423 77.3385 35.2759 77.8714 35.343 78.3718C35.4236 78.8721 35.5041 79.3616 35.5846 79.8402C35.6652 80.3188 35.739 80.7974 35.8061 81.276C35.8867 81.7546 35.927 82.244 35.927 82.7444C35.927 82.8749 35.9203 82.9945 35.9068 83.1033C35.9068 83.2338 35.9001 83.3644 35.8867 83.4949C35.927 83.6907 35.9941 83.8538 36.0881 83.9844C36.182 84.1149 36.2626 84.2672 36.3297 84.4412C36.3431 84.55 36.3498 84.6479 36.3498 84.7349V85.0612C36.3498 85.431 36.323 85.7573 36.2693 86.0401C36.2156 86.3229 36.1485 86.584 36.0679 86.8233C35.9874 87.0843 35.9001 87.3345 35.8061 87.5738C35.7122 87.8348 35.6249 88.1176 35.5444 88.4222C35.4101 88.4657 35.3027 88.4875 35.2222 88.4875C35.0208 88.4875 34.853 88.4005 34.7188 88.2264C34.598 88.0524 34.4906 87.8348 34.3966 87.5738C34.3026 87.3345 34.2087 87.0843 34.1147 86.8233C34.0342 86.5622 33.9335 86.3447 33.8127 86.1706C33.8261 86.0619 33.8328 85.964 33.8328 85.877C33.8462 85.79 33.8529 85.6921 33.8529 85.5833C33.8529 85.1482 33.806 84.724 33.712 84.3107C33.6314 83.8973 33.5375 83.5058 33.4301 83.1359C33.4167 82.3963 33.3697 81.6675 33.2891 80.9497C33.2086 80.2318 33.0945 79.5248 32.9468 78.8286C32.9737 78.5676 32.9938 78.3174 33.0072 78.0781C33.0206 77.8171 33.0274 77.5669 33.0274 77.3276C33.0274 76.6967 33.0072 76.0658 32.9669 75.435C32.9267 74.8041 32.92 74.1732 32.9468 73.5424C32.9065 73.4336 32.8663 73.3466 32.826 73.2813C32.7857 73.1943 32.7522 73.0964 32.7253 72.9876H32.6448C32.4434 72.9876 32.2488 73.0203 32.0608 73.0855C31.8729 73.129 31.6849 73.1508 31.497 73.1508C31.4299 73.1508 31.3695 73.1508 31.3158 73.1508C31.2621 73.129 30.4365 73.1943 30.3694 73.1725C30.2217 72.9333 30.1076 72.6613 30.0271 72.3568C29.9465 72.0522 29.9062 71.7368 29.9062 71.4105C29.9062 70.9319 29.9868 70.4968 30.1479 70.1052C30.4835 69.9747 31.5776 69.7354 31.8997 69.5614C32.2353 69.3656 32.5575 69.1372 32.8663 68.8761C32.9065 68.5498 32.9267 68.2235 32.9267 67.8972C32.9401 67.5709 33.0139 67.2663 33.1482 66.9835C33.1079 66.8095 33.0408 66.6572 32.9468 66.5267C32.8663 66.3744 32.826 66.2003 32.826 66.0046C32.826 65.8958 32.8394 65.7544 32.8663 65.5803C33.0005 65.3411 33.0945 65.0365 33.1482 64.6667C33.2019 64.2969 33.2489 63.9053 33.2891 63.492C33.3294 63.0786 33.3697 62.6653 33.4099 62.252C33.4636 61.8386 33.5509 61.4688 33.6717 61.1425C33.6449 60.9685 33.6247 60.7836 33.6113 60.5878C33.5979 60.3702 33.5912 60.1744 33.5912 60.0004C33.5912 59.7394 33.5979 59.4783 33.6113 59.2173C33.6382 58.9345 33.6784 58.6734 33.7321 58.4341C33.5845 58.1513 33.4636 57.825 33.3697 57.4552C33.2757 57.0636 33.2287 56.6829 33.2287 56.3131C33.2287 55.5952 33.4435 55.1384 33.8731 54.9426C33.8597 54.8556 33.8462 54.7794 33.8328 54.7142C33.8328 54.6489 33.8328 54.5836 33.8328 54.5184C33.8328 54.3226 33.8664 54.1377 33.9335 53.9636C34.0006 53.7896 34.0543 53.6156 34.0946 53.4415C34.0275 53.1587 33.9939 52.9194 33.9939 52.7236C33.9939 52.5496 34.014 52.3973 34.0543 52.2668C34.0946 52.1145 34.1281 51.9514 34.155 51.7773C34.1953 51.5598 34.2221 51.364 34.2355 51.19C34.2624 51.0159 34.3026 50.8637 34.3563 50.7331C34.41 50.6026 34.4772 50.5047 34.5577 50.4395C34.6517 50.3742 34.7926 50.3416 34.9806 50.3416C35.2759 50.3416 35.5578 50.4938 35.8263 50.7984C36.1082 51.0812 36.323 51.4075 36.4706 51.7773C36.6183 51.7556 36.7458 51.7121 36.8532 51.6468C36.974 51.5598 37.0814 51.4837 37.1754 51.4184C37.2828 51.3531 37.3902 51.2988 37.4976 51.2552C37.6184 51.19 37.7594 51.1682 37.9204 51.19C37.9607 51.0377 38.0278 50.9398 38.1218 50.8963C38.2292 50.831 38.3366 50.7875 38.444 50.7658C38.5514 50.7223 38.6521 50.6679 38.746 50.6026C38.84 50.5374 38.9004 50.4177 38.9273 50.2437C38.9809 50.3089 39.0414 50.3416 39.1085 50.3416C39.1756 50.3416 39.2427 50.3307 39.3098 50.3089C39.377 50.2654 39.4508 50.2437 39.5313 50.2437C39.6119 50.2437 39.679 50.2872 39.7327 50.3742C40.0817 50.0696 40.4509 49.8521 40.8402 49.7216C41.2429 49.5693 41.6389 49.4823 42.0282 49.4605C42.9545 48.6339 43.9277 48.0683 44.948 47.7637C45.9816 47.4591 47.0153 47.3069 48.0489 47.3069C48.1966 47.3069 48.3376 47.3069 48.4718 47.3069C48.6195 47.2851 48.7604 47.296 48.8947 47.3395C49.0423 47.383 49.2034 47.4591 49.3779 47.5679C49.5659 47.6767 49.7471 47.8072 49.9216 47.9595C50.1095 48.1118 50.2841 48.2858 50.4451 48.4816C50.6062 48.6556 50.7405 48.8188 50.8479 48.9711C50.9553 49.3626 51.009 49.7433 51.009 50.1132C51.009 50.2872 51.0022 50.4612 50.9888 50.6353C50.9754 50.7875 50.9687 50.9507 50.9687 51.1247C50.9687 51.3858 51.0022 51.6795 51.0694 52.0058C51.0291 51.984 50.962 51.9731 50.868 51.9731C50.7472 51.9731 50.6465 52.0166 50.566 52.1037C50.4854 52.1907 50.4116 52.2886 50.3445 52.3973C50.2773 52.5061 50.2102 52.604 50.1431 52.691C50.0894 52.778 50.0357 52.8215 49.982 52.8215C49.8746 52.8215 49.7806 52.7889 49.7001 52.7236C49.633 52.6584 49.5591 52.5931 49.4786 52.5279C49.4115 52.4408 49.3377 52.3756 49.2571 52.3321C49.1766 52.2668 49.0826 52.2451 48.9752 52.2668V52.1363C48.9752 51.897 48.9282 51.7447 48.8342 51.6795C48.7403 51.5924 48.6664 51.4728 48.6127 51.3205C48.4114 51.2988 48.21 51.2552 48.0087 51.19C47.8207 51.1247 47.6261 51.0921 47.4247 51.0921C47.1562 51.0921 46.9482 51.2444 46.8005 51.5489C46.7334 51.5054 46.673 51.451 46.6193 51.3858C46.579 51.3205 46.5186 51.2988 46.438 51.3205H46.3776C45.6527 51.3205 44.9413 51.451 44.2432 51.7121C43.5451 51.9514 42.8538 52.2559 42.1692 52.6258C41.4845 52.9738 40.7999 53.3545 40.1153 53.7678C39.4307 54.1812 38.746 54.5401 38.0614 54.8447C37.9003 55.1927 37.7325 55.4538 37.558 55.6278C37.3835 55.7801 37.209 55.9106 37.0345 56.0194C36.8734 56.1282 36.7123 56.2369 36.5512 56.3457C36.3901 56.4545 36.2491 56.6285 36.1283 56.8678C36.0209 57.1071 35.9337 57.4443 35.8666 57.8794C35.8129 58.2927 35.7994 58.8692 35.8263 59.6088C35.7592 59.7394 35.7189 59.8808 35.7055 60.033C35.692 60.1853 35.6786 60.3376 35.6652 60.4899C35.6518 60.6204 35.6316 60.7509 35.6048 60.8815C35.5779 61.012 35.531 61.1316 35.4638 61.2404C35.4907 61.4579 35.5108 61.6755 35.5242 61.893C35.5377 62.1106 35.5444 62.3281 35.5444 62.5456C35.5444 63.4593 35.4504 64.3512 35.2625 65.2214C35.3296 65.3954 35.3632 65.5912 35.3632 65.8088C35.3632 66.0481 35.343 66.2656 35.3027 66.4614C35.2625 66.6572 35.2423 66.8747 35.2423 67.114C35.2423 67.3533 35.2692 67.5491 35.3229 67.7014C35.4034 67.7014 35.4504 67.7449 35.4638 67.8319H35.5846C35.8263 67.8319 36.0344 67.734 36.2089 67.5382C36.3834 67.3424 36.5713 67.2445 36.7727 67.2445C36.813 67.2445 36.8599 67.2663 36.9136 67.3098C36.9673 67.3533 37.0143 67.3751 37.0546 67.3751C37.1486 67.3751 37.1888 67.3207 37.1754 67.2119C37.162 67.1031 37.1955 67.027 37.2761 66.9835L38.001 66.7877C38.4574 66.6572 38.887 66.5049 39.2897 66.3309C39.7059 66.1351 40.1153 65.8523 40.518 65.4825C40.612 65.5477 40.7194 65.5803 40.8402 65.5803C40.9476 65.5803 41.0617 65.5586 41.1825 65.5151C41.3033 65.4498 41.4174 65.4172 41.5248 65.4172C41.6188 65.4172 41.6926 65.4389 41.7463 65.4825C41.8269 65.3954 41.9275 65.3302 42.0484 65.2867C42.1692 65.2214 42.2363 65.0909 42.2497 64.8951H42.29C42.3437 64.8951 42.384 64.9168 42.4108 64.9604C42.4377 65.0039 42.4779 65.0256 42.5316 65.0256H42.6122C42.8941 64.8081 43.1491 64.6449 43.3773 64.5361C43.7532 64.3839 44.1559 64.2533 44.5855 64.1446C45.0151 64.0141 45.3977 63.7965 45.7333 63.492C46.1226 63.492 46.4985 63.3941 46.8609 63.1983C47.2368 62.9807 47.6127 62.872 47.9885 62.872C48.163 62.872 48.3241 62.9155 48.4718 63.0025C48.606 62.8502 48.7604 62.7414 48.9349 62.6762C49.1229 62.6109 49.2772 62.4913 49.3981 62.3172C49.4786 62.339 49.5591 62.3607 49.6397 62.3825C49.7337 62.3825 49.8276 62.3825 49.9216 62.3825C50.3243 62.3825 50.7069 62.2955 51.0694 62.1214C51.4452 61.9257 51.8278 61.7843 52.2171 61.6972C52.3111 61.8713 52.3715 62.0562 52.3983 62.252C52.4386 62.426 52.4588 62.6109 52.4588 62.8067Z" fill="white"/>
<path d="M63.764 79.5791C63.7237 79.8837 63.6365 80.1339 63.5022 80.3297C63.3814 80.5037 63.2338 80.6451 63.0592 80.7539C62.8847 80.8626 62.7035 80.9388 62.5156 80.9823C62.3411 81.004 62.18 81.0149 62.0323 81.0149C61.9652 81.0149 61.8981 81.0149 61.8309 81.0149C61.7772 80.9932 61.7168 80.9823 61.6497 80.9823C61.5826 80.9823 61.549 81.0367 61.549 81.1454C61.549 81.2542 61.5155 81.3304 61.4483 81.3739C61.3812 81.3304 61.3141 81.2977 61.247 81.276C61.1799 81.2542 61.1127 81.2433 61.0456 81.2433C60.9517 81.2433 60.8577 81.2542 60.7637 81.276C60.6832 81.2977 60.6026 81.3086 60.5221 81.3086C60.4147 81.3086 60.3341 81.2868 60.2804 81.2433C60.2402 81.1998 60.1999 81.1563 60.1596 81.1128C60.1328 81.0475 60.0992 80.9823 60.059 80.917C60.0321 80.8518 59.9851 80.7974 59.918 80.7539C59.824 80.6886 59.7435 80.6777 59.6764 80.7212C59.6227 80.7647 59.5354 80.6995 59.4146 80.5254C59.2535 80.3079 59.1126 80.0469 58.9917 79.7423C58.8843 79.416 58.7769 79.0788 58.6696 78.7307C58.5622 78.3827 58.4481 78.0346 58.3272 77.6865C58.2064 77.3385 58.0655 77.0339 57.9044 76.7729H57.7433C57.5017 76.7729 57.3339 76.936 57.2399 77.2623C57.1728 77.1971 57.1056 77.1209 57.0385 77.0339C56.9714 76.9251 56.8976 76.8381 56.817 76.7729C56.5083 76.9251 56.1861 77.0557 55.8505 77.1644C55.5149 77.2732 55.1793 77.3276 54.8437 77.3276H54.5618C54.4812 77.3276 54.394 77.3058 54.3 77.2623C54.1658 77.3493 54.0449 77.4581 53.9376 77.5886C53.8302 77.6974 53.7093 77.7518 53.5751 77.7518C53.4946 77.7518 53.4006 77.7083 53.2932 77.6213C53.2127 77.6213 53.1724 77.6757 53.1724 77.7844C53.1858 77.8932 53.1455 77.9476 53.0516 77.9476H52.8703C52.6824 77.9476 52.4945 77.9585 52.3065 77.9802C52.132 78.002 51.9508 78.0128 51.7629 78.0128C51.5078 78.0128 51.246 77.9585 50.9775 77.8497C50.9104 77.9149 50.8366 77.9476 50.756 77.9476C50.7023 77.9911 50.6621 78.0672 50.6352 78.176C50.6084 78.263 50.5815 78.35 50.5547 78.437C50.5278 78.5023 50.4876 78.5676 50.4339 78.6328C50.3936 78.6763 50.3332 78.6872 50.2526 78.6655C50.2258 78.9265 50.1587 79.1332 50.0513 79.2855C49.9439 79.4377 49.8902 79.6662 49.8902 79.9707C49.7425 80.1012 49.6217 80.2644 49.5277 80.4602C49.4338 80.656 49.3398 80.8626 49.2458 81.0802C49.1519 81.2977 49.0512 81.5044 48.9438 81.7002C48.8498 81.896 48.729 82.0482 48.5813 82.157C48.5142 82.2875 48.4941 82.4942 48.5209 82.777C48.3733 82.9728 48.192 83.1468 47.9773 83.2991C47.7625 83.4514 47.5611 83.5275 47.3732 83.5275C46.9839 83.5275 46.7154 83.1903 46.5677 82.516C46.5677 82.2984 46.5811 82.07 46.608 81.8307C46.6214 81.5696 46.6483 81.3304 46.6885 81.1128C46.7288 80.8735 46.7892 80.6668 46.8698 80.4928C46.9503 80.297 47.0644 80.1556 47.2121 80.0686C47.2121 79.8728 47.1718 79.7423 47.0913 79.677C47.0107 79.59 46.9772 79.4486 46.9906 79.2528C47.353 78.97 47.6685 78.6002 47.937 78.1434C48.2055 77.6865 48.4471 77.2079 48.6619 76.7076C48.8901 76.1855 49.1183 75.6634 49.3465 75.1413C49.5747 74.6192 49.8298 74.1515 50.1117 73.7382V73.0529C50.5144 72.3568 50.7762 71.5736 50.897 70.7034C51.0447 70.6599 51.1386 70.5512 51.1789 70.3771C51.2326 70.2031 51.2594 69.9964 51.2594 69.7571C51.3266 69.7571 51.3668 69.7136 51.3803 69.6266C51.4071 69.5178 51.4675 69.4852 51.5615 69.5287C51.6823 69.0066 51.8165 68.528 51.9642 68.093C52.1119 67.6579 52.2595 67.2228 52.4072 66.7877C52.5549 66.3309 52.6824 65.8632 52.7898 65.3846C52.9106 64.906 52.9979 64.373 53.0516 63.7856C53.2395 63.7639 53.3402 63.6225 53.3536 63.3614C53.3805 63.0786 53.4073 62.8285 53.4342 62.6109C53.6355 62.3064 53.7832 61.9474 53.8771 61.5341C53.9845 61.1208 54.0785 60.6965 54.1591 60.2615C54.2396 59.8046 54.3269 59.3587 54.4208 58.9236C54.5282 58.4667 54.3738 57.3464 54.5618 56.9983V56.9004C54.5618 56.7917 54.5349 56.7264 54.4812 56.7047C54.4275 56.6611 54.4007 56.585 54.4007 56.4762C54.4141 56.4545 54.4208 56.4327 54.4208 56.411C54.5819 56.3022 54.7027 56.1282 54.7833 55.8889C54.8638 55.6278 54.9846 55.4429 55.1457 55.3341C55.4276 55.704 55.978 56.6503 56.1928 56.7373C56.4076 56.8026 56.6895 56.8569 57.0385 56.9004C57.213 57.205 57.307 57.5748 57.3204 58.0099C57.3473 58.4232 57.3943 58.8366 57.4614 59.2499C57.5688 59.946 57.6829 60.6313 57.8037 61.3057C57.9379 61.9583 58.0386 62.6327 58.1057 63.3288C58.146 63.7421 58.2198 64.1337 58.3272 64.5035C58.4346 64.8733 58.5085 65.254 58.5487 65.6456C58.5756 65.9502 58.5756 66.2982 58.5487 66.6898C58.5219 67.0596 58.5487 67.3859 58.6293 67.6687L58.7702 68.1908C58.8374 68.4301 58.8911 68.6803 58.9313 68.9414C58.985 69.2024 59.032 69.4635 59.0723 69.7245C59.1797 70.3771 59.2736 71.0841 59.3542 71.8455C59.4482 72.5852 59.5891 73.2596 59.777 73.8687C59.8442 74.0862 59.9448 74.2385 60.0791 74.3255C60.2268 74.4125 60.3878 74.4778 60.5624 74.5213C60.7369 74.5431 60.9047 74.5539 61.0658 74.5539C61.2403 74.5322 61.3879 74.5213 61.5088 74.5213H61.7101C61.7907 74.5213 61.8712 74.5431 61.9518 74.5866C62.0054 74.7606 62.0323 74.9129 62.0323 75.0434C62.0323 75.3045 61.9786 75.5111 61.8712 75.6634C61.7638 75.8157 61.7101 75.9897 61.7101 76.1855C61.7101 76.2943 61.737 76.4139 61.7907 76.5444C61.737 76.5227 61.6564 76.5118 61.549 76.5118C61.2403 76.5118 60.9382 76.5988 60.6429 76.7729C60.7503 77.1427 60.8912 77.4581 61.0658 77.7192C61.2537 77.9585 61.4483 78.1869 61.6497 78.4044C61.7839 78.2304 61.9249 78.1434 62.0726 78.1434C62.2337 78.1434 62.3813 78.2086 62.5156 78.3392C62.6632 78.4479 62.8176 78.5023 62.9787 78.5023C63.0995 78.5023 63.1868 78.4697 63.2405 78.4044C63.3479 78.6002 63.4351 78.8069 63.5022 79.0244C63.5694 79.2202 63.6566 79.4051 63.764 79.5791ZM57.4614 74.3581C57.4345 73.9883 57.3876 73.7273 57.3204 73.575C57.2667 73.401 57.2197 73.1943 57.1795 72.955C57.1258 72.6504 57.0855 72.3241 57.0587 71.9761C57.0452 71.628 57.0184 71.2908 56.9781 70.9645C56.8841 70.2249 56.7768 69.4852 56.6559 68.7456C56.5485 68.0059 56.4076 67.288 56.2331 66.5919C56.2868 66.4614 56.3136 66.3417 56.3136 66.233V66.1351C56.1928 65.9175 56.1055 65.6565 56.0519 65.3519C55.9982 65.0256 55.9445 64.7102 55.8908 64.4056C55.8505 64.0793 55.7901 63.7856 55.7095 63.5246C55.6424 63.2418 55.5283 63.0134 55.3672 62.8393C55.327 62.9699 55.3068 63.1221 55.3068 63.2962C55.3068 63.4484 55.3135 63.5898 55.327 63.7204C55.3538 63.8509 55.3672 63.9923 55.3672 64.1446C55.233 64.2533 55.1323 64.4274 55.0652 64.6667C55.0115 64.8842 54.9175 65.0582 54.7833 65.1888C54.6759 65.8849 54.5215 66.5484 54.3201 67.1793C54.1188 67.7884 53.904 68.3975 53.6758 69.0066C53.461 69.6157 53.2529 70.2357 53.0516 70.8666C52.8502 71.4757 52.6891 72.1175 52.5683 72.7918C52.3938 72.9876 52.273 73.2378 52.2058 73.5424C52.1522 73.8469 52.1253 74.1515 52.1253 74.456C52.2461 74.5648 52.3804 74.6301 52.528 74.6518C52.6891 74.6518 52.8435 74.6518 52.9912 74.6518C53.1388 74.6518 53.2798 74.6736 53.414 74.7171C53.5483 74.7606 53.6691 74.8694 53.7765 75.0434C53.951 74.9564 54.1389 74.902 54.3403 74.8802C54.5551 74.8367 54.7296 74.7388 54.8638 74.5866C55.1323 74.7388 55.4209 74.815 55.7297 74.815C55.8908 74.815 56.0451 74.7932 56.1928 74.7497C56.3539 74.7062 56.5083 74.6518 56.6559 74.5866C56.7768 74.6301 56.8707 74.7062 56.9378 74.815C57.005 74.902 57.1056 74.9346 57.2399 74.9129C57.307 74.8259 57.3473 74.7388 57.3607 74.6518C57.3741 74.5431 57.4077 74.4452 57.4614 74.3581Z" fill="white"/>
<path d="M76.6399 60.5225C76.613 60.7836 76.5728 61.012 76.5191 61.2078C76.4788 61.3818 76.4721 61.6211 76.4989 61.9257C76.3647 61.9474 76.2573 62.0235 76.1767 62.1541C76.1096 62.2628 76.0492 62.3934 75.9955 62.5456C75.9552 62.6979 75.9083 62.8611 75.8546 63.0351C75.8143 63.1874 75.7606 63.3288 75.6935 63.4593C75.8009 64.2425 75.8613 65.0365 75.8747 65.8414C75.8881 66.6463 75.9217 67.4403 75.9754 68.2235C76.0425 69.2242 76.1432 70.214 76.2774 71.1929C76.4251 72.1501 76.4989 73.129 76.4989 74.1297C76.4989 74.4343 76.4922 74.7171 76.4788 74.9781C76.4788 75.2392 76.4788 75.5111 76.4788 75.7939C76.4788 75.968 76.4788 76.1529 76.4788 76.3487C76.4922 76.5227 76.4989 76.6967 76.4989 76.8708C76.4989 77.5016 76.4452 78.1325 76.3378 78.7634C76.2439 79.3942 76.17 80.0251 76.1163 80.656C75.9552 80.8953 75.8143 81.1563 75.6935 81.4391C75.5861 81.7219 75.472 81.983 75.3512 82.2223C75.2303 82.4616 75.0894 82.6682 74.9283 82.8423C74.7672 83.0381 74.5658 83.1686 74.3242 83.2338C74.2839 83.4514 74.2034 83.6145 74.0826 83.7233C73.9752 83.8321 73.8812 83.9844 73.8007 84.1801H73.7604C73.4248 84.1801 73.1362 84.104 72.8945 83.9517C72.6529 83.7994 72.4247 83.6254 72.2099 83.4296C72.0086 83.2338 71.8005 83.0272 71.5857 82.8096C71.3709 82.5921 71.1226 82.4181 70.8407 82.2875C70.4648 81.7872 70.1225 81.2433 69.8137 80.656C69.505 80.0469 69.1559 79.503 68.7666 79.0244C68.6727 78.5893 68.5451 78.2304 68.384 77.9476C68.2364 77.6648 68.0887 77.3385 67.9411 76.9686C67.8739 76.8164 67.8202 76.675 67.78 76.5444C67.7531 76.4139 67.7128 76.2616 67.6591 76.0876C67.6189 75.9136 67.5518 75.7939 67.4578 75.7287C67.3772 75.6634 67.3034 75.5873 67.2363 75.5002C67.1289 74.8259 66.9745 74.2059 66.7732 73.6403C66.5718 73.0747 66.3369 72.5308 66.0684 72.0087C65.9878 72.248 65.9207 72.509 65.867 72.7918C65.8268 73.0529 65.7865 73.3248 65.7462 73.6076C65.7059 73.8687 65.6522 74.1406 65.5851 74.4234C65.5314 74.6845 65.4576 74.9238 65.3636 75.1413V75.2392C65.3636 75.348 65.3905 75.4132 65.4442 75.435C65.4979 75.4567 65.5247 75.522 65.5247 75.6308C65.5247 75.6525 65.518 75.6743 65.5046 75.696C65.5046 75.7178 65.5046 75.7395 65.5046 75.7613C65.4375 75.8483 65.3838 75.9571 65.3435 76.0876C65.3166 76.2181 65.2495 76.2943 65.1421 76.316C65.1555 76.4248 65.1623 76.5336 65.1623 76.6423V76.936C65.1623 77.5669 65.1153 78.1978 65.0213 78.8286C64.9408 79.4595 64.9005 80.1012 64.9005 80.7539V81.1781C64.9005 81.3304 64.9072 81.4718 64.9206 81.6023C64.9475 81.7328 64.9877 81.8633 65.0414 81.9939C65.0951 82.1244 65.6858 82.881 65.6858 82.9898C65.6858 83.1421 65.6455 83.2835 65.565 83.414C65.659 83.5228 65.7663 83.6424 65.8872 83.7729C66.008 83.9035 66.1154 84.0449 66.2093 84.1971C66.3167 84.3712 66.404 84.5452 66.4711 84.7192C66.5382 84.915 66.5718 85.1217 66.5718 85.3392C66.5718 85.7091 66.498 85.9701 66.3503 86.1224C66.2026 86.2747 66.0214 86.3943 65.8066 86.4813C65.6053 86.5683 65.3905 86.6445 65.1623 86.7098C64.9475 86.7968 64.2024 86.3012 64.0548 86.497H63.9944C63.8333 86.497 63.7125 86.4208 63.6319 86.2685C63.5514 86.1163 63.4306 86.0401 63.2695 86.0401C63.0144 85.3657 62.8399 84.6043 62.7459 83.7559C62.652 82.9293 62.605 82.1353 62.605 81.3739C62.605 80.4384 62.6587 79.503 62.7661 78.5676C62.86 77.6321 62.9808 76.7076 63.1285 75.7939C63.2628 74.8802 63.4104 73.9774 63.5715 73.0855C63.746 72.1719 63.9071 71.2582 64.0548 70.3445L64.0749 70.2466C64.0749 70.1378 64.0548 70.0617 64.0145 70.0182C63.9877 69.9747 63.9742 69.9094 63.9742 69.8224C63.9742 69.7789 63.9809 69.7571 63.9944 69.7571C64.0346 69.5396 64.0749 69.3329 64.1152 69.1372C64.1689 68.9414 64.2091 68.7238 64.236 68.4845C64.3165 67.8754 64.3702 67.2554 64.3971 66.6245C64.4374 65.9719 64.4575 65.3302 64.4575 64.6993C64.4709 64.0684 64.4843 63.4376 64.4978 62.8067C64.5246 62.1541 64.5716 61.5123 64.6387 60.8815C64.7461 60.7074 64.8468 60.5225 64.9408 60.3267C65.0347 60.1309 65.1556 59.9569 65.3032 59.8046C65.5717 59.8264 65.8402 59.8916 66.1087 60.0004C66.3771 60.1092 66.6322 60.2832 66.8738 60.5225C67.0349 61.4579 67.1423 62.3934 67.196 63.3288C67.2631 64.2642 67.3705 65.1997 67.5182 66.1351V66.233C67.5182 66.3417 67.5518 66.3961 67.6189 66.3961C67.6994 66.3744 67.7598 66.407 67.8001 66.494C67.7733 66.5593 67.7531 66.6354 67.7397 66.7224C67.7397 66.8095 67.7397 66.8965 67.7397 66.9835V67.5382C67.7665 67.7123 67.8001 67.8972 67.8404 68.093C67.8806 68.2887 67.9679 68.4084 68.1021 68.4519C68.1693 69.148 68.2699 69.7898 68.4042 70.3771C68.5384 70.9645 68.6928 71.5301 68.8673 72.074C69.0418 72.6178 69.2298 73.1617 69.4311 73.7055C69.6325 74.2276 69.8406 74.7824 70.0554 75.3697C70.391 75.783 70.6796 76.2616 70.9212 76.8055C71.1628 77.3276 71.4045 77.8388 71.6461 78.3392C71.9012 78.8177 72.1831 79.242 72.4918 79.6118C72.814 79.9816 73.2302 80.21 73.7403 80.297C73.8074 80.21 73.8544 80.0904 73.8812 79.9381L73.9819 79.4812C74.0222 79.329 74.0624 79.1984 74.1027 79.0897C74.1564 78.9591 74.2302 78.8613 74.3242 78.796C74.3511 78.1869 74.3779 77.5669 74.4048 76.936C74.445 76.3051 74.5323 75.7069 74.6665 75.1413C74.5994 74.9455 74.5658 74.7062 74.5658 74.4234C74.5658 74.2059 74.5726 73.9992 74.586 73.8034C74.6128 73.6076 74.6263 73.4118 74.6263 73.2161C74.6263 72.8027 74.5726 72.4655 74.4652 72.2045C74.4652 72.0522 74.4719 71.8999 74.4853 71.7476C74.4987 71.5736 74.539 71.4105 74.6061 71.2582C74.4987 70.8231 74.4115 70.3663 74.3444 69.8877C74.2907 69.4091 74.2638 68.9196 74.2638 68.4193C74.2638 68.1365 74.2839 67.8428 74.3242 67.5382C74.2437 67.2119 74.19 66.8312 74.1631 66.3961L74.0826 65.0582C74.0557 64.6014 74.0155 64.1772 73.9618 63.7856C73.9081 63.3941 73.8074 63.0786 73.6597 62.8393C73.7403 62.6435 73.7805 62.4151 73.7805 62.1541C73.7805 61.719 73.7403 61.3057 73.6597 60.9141C73.5792 60.5225 73.5389 60.1092 73.5389 59.6741C73.5389 59.3695 73.5792 59.065 73.6597 58.7604C73.9551 58.7822 74.2437 58.8366 74.5256 58.9236C74.8209 58.9888 75.1095 59.0215 75.3914 59.0215C75.472 59.1955 75.5659 59.3369 75.6733 59.4457C75.7807 59.5545 75.8948 59.6632 76.0157 59.772C76.1365 59.859 76.2506 59.9569 76.358 60.0657C76.4788 60.1744 76.5728 60.3267 76.6399 60.5225Z" fill="white"/>
<path d="M91.9724 65.874C91.9724 66.0916 91.9254 66.233 91.8314 66.2982C91.7374 66.3635 91.6905 66.494 91.6905 66.6898C91.6905 66.7551 91.7039 66.8095 91.7307 66.853C91.7576 66.8965 91.771 66.9617 91.771 67.0488V67.1793C91.6099 68.441 91.375 69.5396 91.0662 70.475C90.7709 71.4105 90.4219 72.2697 90.0192 73.0529C89.6164 73.836 89.16 74.5757 88.6499 75.2718C88.1532 75.968 87.6162 76.6967 87.039 77.4581C86.8779 77.6757 86.7101 77.8932 86.5356 78.1107C86.3745 78.3283 86.2201 78.5567 86.0725 78.796L85.6295 79.4812C85.616 79.503 85.5422 79.5574 85.408 79.6444C85.2737 79.7097 85.1932 79.7532 85.1663 79.7749C84.9784 79.9055 84.777 80.0577 84.5623 80.2318C84.3609 80.4058 84.1864 80.6233 84.0387 80.8844C83.7702 80.8844 83.542 80.9497 83.3541 81.0802C83.1661 81.2107 82.9581 81.3847 82.7299 81.6023C82.6627 81.6023 82.6023 81.5805 82.5486 81.537C82.5084 81.4935 82.4614 81.45 82.4077 81.4065C82.354 81.363 82.2936 81.3412 82.2265 81.3412C82.1728 81.3195 82.0989 81.3304 82.005 81.3739C81.8439 80.9388 81.6694 80.569 81.4814 80.2644C81.2935 79.9598 81.0384 79.7749 80.7162 79.7097C80.676 79.3398 80.582 79.057 80.4343 78.8613C80.2867 78.6437 80.139 78.4153 79.9913 78.176C79.9645 78.0455 79.9444 77.8932 79.9309 77.7192C79.9175 77.5451 79.8907 77.382 79.8504 77.2297C79.8101 77.0774 79.7564 76.9469 79.6893 76.8381C79.6222 76.7293 79.5282 76.675 79.4074 76.675C79.394 76.5444 79.4275 76.4792 79.5081 76.4792C79.5886 76.4792 79.6289 76.4248 79.6289 76.316C79.6289 76.1855 79.6155 76.055 79.5886 75.9244C79.5618 75.7939 79.5483 75.6525 79.5483 75.5002C79.5483 75.3915 79.5551 75.2936 79.5685 75.2066C79.5819 75.1195 79.602 75.0216 79.6289 74.9129C79.5886 74.3255 79.5685 73.7273 79.5685 73.1182C79.5685 71.9434 79.6155 70.7905 79.7094 69.6593C79.8168 68.5063 79.8705 67.3424 79.8705 66.1677C79.8705 65.6456 79.8504 65.1235 79.8101 64.6014C79.7833 64.0793 79.7229 63.5681 79.6289 63.0677C79.3201 63.1765 79.0114 63.307 78.7026 63.4593C78.3939 63.5898 78.1053 63.7748 77.8368 64.014C77.6891 63.8618 77.5347 63.7748 77.3736 63.753C77.1991 63.7095 77.0313 63.6442 76.8702 63.5572C76.7763 63.2527 76.7293 62.9372 76.7293 62.6109C76.7293 62.3064 76.7628 62.0127 76.83 61.7299L77.0313 60.8815C77.3535 60.7727 77.6757 60.6095 77.9979 60.392C78.3066 60.1744 78.6221 59.9787 78.9443 59.8046C79.0517 59.7611 79.1859 59.7067 79.347 59.6415C79.5215 59.5762 79.6423 59.5218 79.7094 59.4783C79.8034 59.413 79.8638 59.2934 79.8907 59.1194C79.9309 58.9236 79.9846 58.7604 80.0518 58.6299H80.3941C80.4746 58.6299 80.5619 58.6408 80.6558 58.6625C80.7498 58.6625 80.8371 58.6952 80.9176 58.7604C81.4009 58.5646 81.8841 58.445 82.3674 58.4015C82.8507 58.3362 83.3474 58.2492 83.8575 58.1404C83.9112 58.1404 83.9917 58.1296 84.0991 58.1078L84.4414 58.0099C84.5623 57.9664 84.6696 57.9338 84.7636 57.912C84.871 57.8685 84.9448 57.8468 84.9851 57.8468C85.0254 57.8468 85.0455 57.8794 85.0455 57.9446H85.3878C85.9651 57.9446 86.5289 58.0643 87.0793 58.3036L88.7304 59.0215C88.9586 59.326 89.1869 59.6197 89.4151 59.9025C89.6433 60.1853 89.8983 60.4355 90.1802 60.653C90.2474 61.0011 90.348 61.2839 90.4823 61.5014C90.63 61.6972 90.791 61.9148 90.9656 62.1541C91.0327 62.4369 91.1199 62.7414 91.2273 63.0677C91.3481 63.3723 91.4622 63.6877 91.5696 64.014C91.677 64.3404 91.771 64.6667 91.8515 64.993C91.9321 65.2975 91.9724 65.5912 91.9724 65.874ZM90.0997 66.3635C89.952 65.8632 89.8111 65.3411 89.6768 64.7972C89.5426 64.2533 89.3748 63.7639 89.1734 63.3288C88.9318 63.22 88.6835 63.0895 88.4284 62.9372C88.1868 62.7632 88.019 62.4695 87.925 62.0562C87.8981 62.0779 87.8512 62.0888 87.784 62.0888C87.6632 62.0888 87.5558 62.0127 87.4619 61.8604C87.3679 61.7081 87.2605 61.6102 87.1397 61.5667C87.0323 61.545 86.8846 61.5123 86.6967 61.4688C86.5222 61.4253 86.3342 61.3927 86.1329 61.3709C85.9315 61.3492 85.7302 61.3274 85.5288 61.3057C85.3409 61.2839 85.1932 61.273 85.0858 61.273C84.9784 61.273 84.8643 61.2839 84.7435 61.3057C84.6361 61.3057 84.522 61.3165 84.4012 61.3383C84.2938 61.3383 84.2267 61.3709 84.1998 61.4362C84.173 61.4797 84.1193 61.5232 84.0387 61.5667C83.9716 61.5232 83.8978 61.5014 83.8172 61.5014H83.5756C83.2937 61.5014 83.0118 61.5776 82.7299 61.7299C82.4614 61.8604 82.1929 62.0453 81.9244 62.2846V62.4151C81.9244 62.5892 81.9714 62.687 82.0654 62.7088C82.1593 62.7306 82.213 62.8176 82.2265 62.9699C82.1593 62.9699 82.1056 62.9807 82.0654 63.0025C82.0251 63.0025 82.005 63.0786 82.005 63.2309C82.005 63.4484 82.0184 63.6877 82.0452 63.9488C82.0855 64.2098 82.1056 64.4709 82.1056 64.7319C82.1056 64.9277 82.0922 65.1561 82.0654 65.4172C82.0385 65.6782 81.9714 65.8849 81.864 66.0372C81.9982 66.233 82.0654 66.494 82.0654 66.8203C82.0654 67.0379 82.0385 67.2663 81.9848 67.5056C81.9311 67.7449 81.864 67.9515 81.7835 68.1256C81.7566 69.0393 81.7029 69.9638 81.6224 70.8992C81.5418 71.8347 81.5016 72.7592 81.5016 73.6729C81.5016 74.1297 81.515 74.5757 81.5418 75.0108C81.5821 75.4459 81.6425 75.8809 81.7231 76.316C81.8707 76.5553 82.0251 76.7402 82.1862 76.8708C82.3607 77.0013 82.5419 77.1318 82.7299 77.2623V77.3602C82.7299 77.4255 82.703 77.4907 82.6493 77.556C82.5956 77.6213 82.5688 77.7083 82.5688 77.8171C82.5688 77.9041 82.5956 77.9476 82.6493 77.9476C83.2131 77.6865 83.7434 77.3711 84.2401 77.0013C84.7368 76.6315 85.1999 76.1311 85.6295 75.5002C85.6697 75.435 85.71 75.4023 85.7503 75.4023C85.7771 75.4023 85.8107 75.4132 85.851 75.435C85.9047 75.4567 85.9516 75.4785 85.9919 75.5002L85.9718 75.3697C85.9718 75.2392 85.9919 75.1195 86.0322 75.0108C86.0859 74.902 86.1463 74.8041 86.2134 74.7171L86.4148 74.4234C86.4819 74.3146 86.5356 74.2059 86.5759 74.0971C86.6833 74.0536 86.7571 73.9666 86.7974 73.836C86.8511 73.7055 86.9383 73.6403 87.0591 73.6403C87.086 73.401 87.1598 73.2269 87.2806 73.1182C87.4014 72.9876 87.4753 72.8027 87.5021 72.5634C87.7706 72.3241 88.0055 72.0305 88.2069 71.6824C88.4217 71.3343 88.6163 70.9645 88.7908 70.5729C88.9788 70.1814 89.1533 69.7789 89.3144 69.3656C89.4755 68.9305 89.6433 68.5172 89.8178 68.1256V67.9951C89.8178 67.647 89.8514 67.3642 89.9185 67.1466C89.999 66.9291 90.0594 66.6681 90.0997 66.3635Z" fill="white"/>
<path d="M105.392 63.0677C105.311 63.2635 105.264 63.4811 105.251 63.7204C105.238 63.9597 105.231 64.1772 105.231 64.373C105.231 64.634 105.231 64.8951 105.231 65.1561C105.244 65.3954 105.251 65.6347 105.251 65.874V66.3635C105.224 66.5158 105.184 66.6681 105.13 66.8203C105.076 66.9726 105.036 67.1249 105.009 67.2772C104.821 68.0821 104.727 68.887 104.727 69.6919V69.7571C104.66 70.0182 104.593 70.2575 104.526 70.475C104.472 70.6926 104.419 70.9101 104.365 71.1277C104.311 71.3234 104.271 71.541 104.244 71.7803C104.217 71.9978 104.211 72.2589 104.224 72.5634C104.036 73.3248 103.788 74.021 103.479 74.6518C103.17 75.2609 102.868 75.8918 102.573 76.5444C102.291 76.7185 102.029 76.9469 101.788 77.2297C101.559 77.5125 101.338 77.8279 101.123 78.176C100.707 78.3935 100.297 78.6437 99.8947 78.9265C99.492 79.2093 99.1296 79.59 98.8074 80.0686C98.5523 80.1121 98.2973 80.1774 98.0422 80.2644C97.7871 80.3514 97.5388 80.4819 97.2972 80.656H97.0555C96.9347 80.656 96.8475 80.6125 96.7938 80.5254C96.6193 80.6777 96.438 80.7865 96.2501 80.8518C96.0622 80.8953 95.8742 80.917 95.6863 80.917C95.4446 80.917 95.203 80.8953 94.9614 80.8518C94.7332 80.7865 94.4982 80.7212 94.2566 80.656C94.1224 80.3514 93.9344 80.123 93.6928 79.9707C93.4512 79.7967 93.2364 79.6335 93.0484 79.4812C92.6591 78.6111 92.3772 77.7735 92.2027 76.9686C92.0282 76.142 91.847 75.2174 91.659 74.195C91.6859 73.8904 91.7329 73.5968 91.8 73.3139C91.8671 73.0094 91.894 72.6831 91.8805 72.335C92.1222 71.2038 92.4376 70.1814 92.8269 69.2677C93.2297 68.3322 93.6861 67.4403 94.1962 66.5919C94.1962 66.4614 94.2096 66.3526 94.2365 66.2656C94.2767 66.1786 94.2835 66.0481 94.2566 65.874C94.27 65.8958 94.2969 65.9067 94.3372 65.9067C94.4445 65.9067 94.5117 65.8632 94.5385 65.7761C94.5654 65.6674 94.5721 65.5477 94.5586 65.4172C95.0419 64.9168 95.4782 64.3404 95.8675 63.6877C96.2702 63.0351 96.7266 62.4913 97.2368 62.0562C97.277 61.8604 97.3442 61.6972 97.4381 61.5667C97.5321 61.4362 97.6059 61.2839 97.6596 61.1099C98.0892 60.9141 98.4785 60.6204 98.8275 60.2288C99.1765 59.8373 99.5457 59.4892 99.935 59.1846C100.15 58.9888 100.351 58.8583 100.539 58.7931C100.74 58.706 100.955 58.619 101.183 58.532C101.264 58.4885 101.338 58.4559 101.405 58.4341C101.472 58.4124 101.546 58.4015 101.626 58.4015C101.868 58.4015 102.103 58.4776 102.331 58.6299C102.559 58.7604 102.794 58.8257 103.036 58.8257C103.103 58.8257 103.157 58.8257 103.197 58.8257C103.251 58.8039 103.304 58.7822 103.358 58.7604C103.586 59.2173 103.875 59.5653 104.224 59.8046C104.305 60.1309 104.399 60.4137 104.506 60.653C104.627 60.8923 104.748 61.1316 104.868 61.3709C104.989 61.5885 105.097 61.8386 105.191 62.1214C105.298 62.3825 105.365 62.6979 105.392 63.0677ZM103.378 64.7646C103.378 64.6558 103.372 64.5579 103.358 64.4709C103.224 64.4056 103.096 64.3186 102.976 64.2098C102.855 64.1011 102.721 64.0467 102.573 64.0467C102.479 64.0467 102.385 64.0793 102.291 64.1446C102.278 63.9923 102.237 63.8835 102.17 63.8183C102.116 63.753 102.049 63.6986 101.969 63.6551C101.902 63.5898 101.828 63.5463 101.747 63.5246C101.68 63.4811 101.62 63.4158 101.566 63.3288C101.526 63.1548 101.479 62.9807 101.425 62.8067C101.385 62.6109 101.304 62.4695 101.183 62.3825C101.063 62.5783 100.922 62.7414 100.761 62.872C100.599 62.9807 100.432 63.0895 100.257 63.1983C100.096 63.307 99.935 63.4376 99.7739 63.5898C99.6262 63.7421 99.4987 63.927 99.3913 64.1446H99.0289C98.9483 64.3839 98.8342 64.5688 98.6866 64.6993C98.5389 64.8081 98.4114 64.9712 98.304 65.1888C98.0892 65.3628 97.8878 65.5803 97.6999 65.8414C97.5254 66.0807 97.3509 66.3417 97.1764 66.6245C97.0018 66.8856 96.8273 67.1575 96.6528 67.4403C96.4917 67.7231 96.3172 67.9842 96.1293 68.2235C95.9548 68.8326 95.7601 69.3656 95.5453 69.8224C95.344 70.2575 95.1493 70.7034 94.9614 71.1603C94.7869 71.6171 94.6325 72.1175 94.4982 72.6613C94.3774 73.1834 94.317 73.836 94.317 74.6192V74.9455C94.317 75.0543 94.3237 75.1631 94.3372 75.2718C94.5117 75.5764 94.6526 75.9027 94.76 76.2508C94.8808 76.5988 95.0755 76.849 95.344 77.0013C95.6124 77.1753 95.8943 77.2514 96.1897 77.2297C96.4984 77.2079 96.7938 77.2623 97.0757 77.3928C97.72 77.1971 98.3375 76.8816 98.9282 76.4465C99.5323 75.9897 100.103 75.4459 100.64 74.815C100.72 74.7062 100.814 74.5974 100.922 74.4887C101.029 74.3581 101.116 74.2276 101.183 74.0971C101.251 73.9883 101.304 73.8687 101.345 73.7382C101.398 73.6076 101.452 73.488 101.506 73.3792C101.613 73.0964 101.734 72.8136 101.868 72.5308C102.002 72.248 102.143 71.9869 102.291 71.7476C102.358 71.2691 102.445 70.8122 102.553 70.3771C102.66 69.9203 102.767 69.4743 102.875 69.0393C102.982 68.6042 103.07 68.1582 103.137 67.7014C103.217 67.2445 103.257 66.7659 103.257 66.2656C103.257 66.1568 103.251 66.0372 103.237 65.9067C103.237 65.7761 103.231 65.6565 103.217 65.5477C103.325 65.3084 103.378 65.0474 103.378 64.7646Z" fill="white"/>
<path d="M126.007 79.2855C125.94 79.6335 125.92 79.9816 125.947 80.3297C125.907 80.4167 125.86 80.4711 125.806 80.4928C125.752 80.5146 125.699 80.5472 125.645 80.5907C125.591 80.6125 125.544 80.656 125.504 80.7212C125.477 80.7647 125.477 80.8626 125.504 81.0149C125.061 81.0584 124.57 79.7749 124.168 80.036C123.765 80.297 123.369 80.5798 122.98 80.8844C122.778 80.7756 122.604 80.6451 122.456 80.4928C122.308 80.3405 122.121 80.2426 121.892 80.1991C121.664 79.4595 121.449 78.6872 121.248 77.8823C121.06 77.0557 120.966 76.229 120.966 75.4023C120.966 74.7932 121.033 74.2385 121.167 73.7382C121.167 73.0855 121.201 72.4438 121.268 71.8129C121.335 71.182 121.409 70.562 121.49 69.9529C121.584 69.3221 121.664 68.6912 121.731 68.0603C121.798 67.4295 121.832 66.7877 121.832 66.1351V65.4172C121.805 65.4172 121.771 65.4716 121.731 65.5803C121.691 65.6674 121.651 65.7761 121.61 65.9067C121.584 66.0154 121.557 66.1242 121.53 66.233C121.503 66.3417 121.483 66.407 121.469 66.4288C121.241 66.7116 121.06 67.0705 120.926 67.5056C120.805 67.9189 120.671 68.3105 120.523 68.6803C120.335 69.1372 120.134 69.5831 119.919 70.0182C119.718 70.4533 119.463 70.7905 119.154 71.0298V71.095C119.154 71.2038 119.134 71.2799 119.093 71.3234C119.053 71.367 119.046 71.4757 119.073 71.6498C118.738 71.8238 118.422 72.074 118.127 72.4003C117.845 72.7266 117.61 73.1399 117.422 73.6403C117.154 73.749 116.899 73.9013 116.657 74.0971C116.429 74.2711 116.194 74.4669 115.952 74.6845C115.845 74.7715 115.731 74.8802 115.61 75.0108C115.489 75.1413 115.368 75.2283 115.247 75.2718C115.14 75.3371 114.992 75.3806 114.804 75.4023C114.63 75.4241 114.442 75.4459 114.241 75.4676C114.053 75.4894 113.865 75.5002 113.677 75.5002H113.234C113.167 75.5002 113.079 75.4459 112.972 75.3371C112.865 75.2283 112.744 75.1087 112.61 74.9781C112.489 74.8476 112.361 74.728 112.227 74.6192C112.093 74.4887 111.965 74.4017 111.844 74.3581C111.737 73.7925 111.583 73.2922 111.381 72.8571C111.193 72.4003 110.992 71.9434 110.777 71.4866C110.71 70.9645 110.616 70.4206 110.495 69.855C110.388 69.2894 110.193 68.8217 109.911 68.4519C109.978 68.2996 110.012 68.1256 110.012 67.9298C110.012 67.6905 109.978 67.4621 109.911 67.2445C109.844 67.027 109.811 66.7877 109.811 66.5267C109.811 66.3526 109.817 66.2221 109.831 66.1351C109.683 66.3961 109.576 66.7333 109.509 67.1466C109.455 67.5382 109.428 67.8972 109.428 68.2235C109.428 68.4845 109.448 68.7238 109.488 68.9414C109.354 69.2459 109.267 69.6266 109.227 70.0835C109.2 70.5403 109.186 70.9427 109.186 71.2908C109.186 71.7259 109.207 72.1501 109.247 72.5634C109.032 72.9115 108.925 73.3357 108.925 73.836C108.925 74.1189 108.965 74.369 109.045 74.5866C109.045 74.6736 109.032 74.7388 109.005 74.7824C108.978 74.8259 108.945 74.8585 108.904 74.8802C108.878 74.902 108.844 74.9346 108.804 74.9781C108.777 74.9999 108.764 75.0543 108.764 75.1413C108.764 75.2501 108.764 75.3697 108.764 75.5002C108.777 75.6308 108.784 75.7613 108.784 75.8918C108.784 76.1964 108.777 76.5118 108.764 76.8381C108.75 77.1644 108.743 77.4799 108.743 77.7844C108.743 78.4153 108.777 78.8721 108.844 79.1549C108.925 79.416 109.019 79.6118 109.126 79.7423C109.247 79.8728 109.374 80.0033 109.509 80.1339C109.643 80.2644 109.777 80.5146 109.911 80.8844C109.871 81.0802 109.797 81.2433 109.69 81.3739C109.596 81.4826 109.502 81.6023 109.408 81.7328C109.327 81.8416 109.253 81.9721 109.186 82.1244C109.119 82.2767 109.092 82.4942 109.106 82.777H109.005C108.831 82.777 108.663 82.8205 108.502 82.9075C108.341 82.9945 108.173 83.0381 107.998 83.0381C107.958 83.0381 107.918 83.0272 107.878 83.0054C107.837 83.0054 107.797 83.0054 107.757 83.0054L107.555 82.8096C107.488 82.7444 107.421 82.7117 107.354 82.7117C107.287 82.7117 107.2 82.7335 107.092 82.777C106.904 81.7981 106.757 80.7865 106.649 79.7423C106.555 78.6981 106.508 77.6757 106.508 76.675C106.508 76.5662 106.522 76.4574 106.549 76.3487C106.589 76.2181 106.642 76.1746 106.71 76.2181V75.5981C106.71 74.9238 106.743 74.2711 106.81 73.6403C106.891 72.9876 106.931 72.3133 106.931 71.6171C106.931 71.4213 106.924 71.2255 106.911 71.0298C106.911 70.834 106.904 70.6491 106.891 70.475C106.958 70.1052 107.025 69.7354 107.092 69.3656C107.173 68.974 107.213 68.5715 107.213 68.1582C107.213 67.9842 107.193 67.7775 107.153 67.5382C107.26 67.4077 107.341 67.2445 107.394 67.0488C107.448 66.8312 107.488 66.6028 107.515 66.3635C107.542 66.1024 107.562 65.8523 107.575 65.613C107.589 65.3737 107.602 65.1561 107.616 64.9604C107.75 64.5253 107.824 64.0576 107.837 63.5572C107.851 63.0569 107.918 62.5892 108.039 62.1541C108.025 62.0671 108.018 61.9148 108.018 61.6972C108.018 61.2622 108.059 60.8271 108.139 60.392C108.233 59.9351 108.414 59.5871 108.683 59.3478C108.925 59.5001 109.207 59.5762 109.529 59.5762C109.837 59.5762 110.133 59.5001 110.415 59.3478C110.495 59.3913 110.569 59.4457 110.636 59.5109C110.703 59.5545 110.77 59.6088 110.838 59.6741C110.918 59.7176 110.999 59.7611 111.079 59.8046C111.16 59.8264 111.254 59.8264 111.361 59.8046C111.495 60.4355 111.609 61.0772 111.703 61.7299C111.811 62.3825 111.891 63.046 111.945 63.7204C111.972 64.0032 111.979 64.3077 111.965 64.634C111.965 64.9604 111.979 65.2649 112.005 65.5477C112.019 65.7218 112.052 65.8849 112.106 66.0372C112.16 66.1677 112.213 66.32 112.267 66.494C112.321 66.6681 112.361 66.8638 112.388 67.0814C112.428 67.2989 112.442 67.5709 112.428 67.8972C112.576 68.4628 112.737 69.0066 112.912 69.5287C113.099 70.0291 113.301 70.5294 113.516 71.0298C113.636 71.095 113.744 71.182 113.838 71.2908C113.932 71.3778 113.992 71.5301 114.019 71.7476C114.14 71.7476 114.247 71.7803 114.341 71.8455L114.684 72.0087C115.194 71.7476 115.664 71.3996 116.093 70.9645C116.536 70.5294 116.999 70.1596 117.482 69.855C118.073 68.9196 118.583 67.8863 119.013 66.7551C119.442 65.6021 119.872 64.46 120.302 63.3288V62.6109C120.382 62.5456 120.449 62.4695 120.503 62.3825C120.57 62.2737 120.651 62.1976 120.745 62.1541C120.758 61.893 120.792 61.6428 120.845 61.4036C120.912 61.1425 120.979 60.9032 121.047 60.6857C121.127 60.4464 121.194 60.218 121.248 60.0004C121.302 59.7611 121.328 59.5109 121.328 59.2499C121.328 59.0976 121.322 58.9671 121.308 58.8583C121.51 58.532 121.751 58.3689 122.033 58.3689C122.302 58.3689 122.57 58.4776 122.839 58.6952C123.121 58.891 123.382 59.0759 123.624 59.2499C123.772 59.772 123.879 60.3267 123.946 60.9141C124.027 61.4797 124.08 62.0671 124.107 62.6762C124.134 63.2853 124.148 63.8944 124.148 64.5035V66.8203C124.134 66.9944 124.094 67.1249 124.027 67.2119C123.973 67.2772 123.933 67.3859 123.906 67.5382V67.8645C123.906 67.9733 123.899 68.0821 123.886 68.1908C123.886 68.6477 123.852 69.1263 123.785 69.6266C123.718 70.2575 123.631 70.8992 123.523 71.5519C123.429 72.1827 123.382 72.8245 123.382 73.4771C123.382 73.7164 123.389 73.9557 123.403 74.195C123.416 74.4343 123.443 74.6736 123.483 74.9129C123.416 75.1087 123.382 75.3588 123.382 75.6634C123.382 76.0115 123.416 76.3378 123.483 76.6423C123.564 76.9251 123.658 77.2079 123.765 77.4907C123.953 77.4907 124.141 77.4799 124.329 77.4581C124.517 77.4364 124.711 77.4255 124.913 77.4255C125.168 78.8613 125.343 78.8939 125.504 78.9591C125.665 79.0027 125.833 79.1114 126.007 79.2855Z" fill="white"/>
<path d="M140.487 72.2697C140.353 72.2915 140.232 72.3459 140.124 72.4329C140.03 72.5199 139.93 72.5852 139.822 72.6287C139.836 72.6504 139.842 72.6831 139.842 72.7266C139.842 72.8571 139.822 72.955 139.782 73.0203C139.742 73.0638 139.735 73.1725 139.762 73.3466C139.561 73.5206 139.352 73.6511 139.138 73.7382C138.923 73.8252 138.701 73.9013 138.473 73.9666C138.258 74.0318 138.044 74.108 137.829 74.195C137.614 74.282 137.413 74.4234 137.225 74.6192V74.2603C137.064 74.4125 136.909 74.4887 136.762 74.4887C136.627 74.4887 136.5 74.456 136.379 74.3908C136.258 74.3038 136.124 74.2603 135.976 74.2603C135.909 74.2603 135.822 74.3038 135.715 74.3908C135.58 74.369 135.473 74.3146 135.392 74.2276C135.325 74.1189 135.238 74.0101 135.131 73.9013C135.063 74.1189 134.963 74.2603 134.829 74.3255C134.708 74.369 134.594 74.3908 134.486 74.3908C134.339 74.3908 134.198 74.3799 134.063 74.3581C133.943 74.3364 133.822 74.3038 133.701 74.2603C133.486 74.369 133.285 74.4343 133.097 74.456C132.909 74.456 132.708 74.456 132.493 74.456C132.305 74.456 132.124 74.4778 131.949 74.5213C131.788 74.5431 131.62 74.6192 131.446 74.7497C131.392 74.5322 131.278 74.4234 131.103 74.4234C131.023 74.4234 130.936 74.4343 130.842 74.456C130.761 74.456 130.681 74.456 130.6 74.456C130.466 74.456 130.365 74.3908 130.298 74.2603C130.244 74.3038 130.217 74.3799 130.217 74.4887C130.231 74.5974 130.231 74.6845 130.217 74.7497C130.016 74.6192 129.801 74.5539 129.573 74.5539C129.385 74.5539 129.204 74.5866 129.029 74.6518C128.855 74.7171 128.68 74.7497 128.506 74.7497C128.412 74.7497 128.318 74.728 128.224 74.6845C128.13 74.6409 128.049 74.6192 127.982 74.6192C127.902 74.6192 127.841 74.6518 127.801 74.7171C127.761 74.7606 127.721 74.815 127.68 74.8802C127.653 74.9238 127.613 74.9781 127.559 75.0434C127.519 75.0869 127.459 75.1087 127.378 75.1087C127.231 75.1087 127.13 75.0434 127.076 74.9129C127.022 74.7606 126.942 74.6627 126.835 74.6192C126.835 74.4017 126.814 74.2059 126.774 74.0318C126.734 73.8578 126.687 73.6838 126.633 73.5097C126.579 73.3139 126.532 73.129 126.492 72.955C126.452 72.781 126.432 72.5852 126.432 72.3676C126.432 72.3024 126.432 72.2371 126.432 72.1719C126.445 72.0848 126.452 72.0087 126.452 71.9434C126.64 71.5084 126.908 71.2038 127.257 71.0298C127.62 70.834 127.949 70.7361 128.244 70.7361C128.392 70.7361 128.499 70.7796 128.566 70.8666C128.647 70.9536 128.741 71.0733 128.848 71.2255C129.788 71.0515 130.727 70.9319 131.667 70.8666C132.62 70.8013 133.567 70.7252 134.506 70.6382C134.815 70.5947 135.124 70.562 135.433 70.5403C135.741 70.4968 136.05 70.4533 136.359 70.4098C136.399 70.4098 136.426 70.388 136.439 70.3445C136.453 70.2792 136.46 70.214 136.46 70.1487C136.473 70.0835 136.486 70.0291 136.5 69.9856C136.527 69.9421 136.567 69.9203 136.621 69.9203C136.768 69.9203 136.869 69.9964 136.923 70.1487C136.976 70.2792 137.057 70.3663 137.164 70.4098C137.258 70.3228 137.366 70.2575 137.487 70.214C137.621 70.1705 137.748 70.1378 137.869 70.1161C137.99 70.0726 138.104 70.0291 138.211 69.9856C138.332 69.9203 138.433 69.8224 138.513 69.6919C138.621 69.6701 138.681 69.7136 138.695 69.8224C138.708 69.9094 138.748 69.9747 138.816 70.0182C138.883 69.9964 138.956 69.9747 139.037 69.9529C139.118 69.9094 139.191 69.8877 139.259 69.8877H139.399C139.453 69.8877 139.5 69.8985 139.54 69.9203C139.661 70.3554 139.816 70.747 140.004 71.095C140.205 71.4431 140.366 71.8347 140.487 72.2697Z" fill="white"/>
<path d="M170.156 89.2706C170.156 89.5099 170.123 89.7383 170.056 89.9559C169.787 90.1952 169.505 90.3583 169.21 90.4453C168.928 90.5541 168.646 90.6085 168.364 90.6085C168.23 90.6085 168.082 90.5976 167.921 90.5759C167.773 90.5759 167.639 90.5541 167.518 90.5106C167.478 90.4888 167.431 90.4453 167.377 90.3801C167.324 90.3148 167.27 90.2822 167.216 90.2822C167.082 90.2822 166.955 90.3148 166.834 90.3801C166.713 90.4671 166.585 90.5106 166.451 90.5106C166.384 90.5106 166.317 90.478 166.25 90.4127C166.196 90.3474 166.136 90.3039 166.069 90.2822C165.975 90.2387 165.881 90.2278 165.787 90.2496C165.693 90.2713 165.592 90.2822 165.485 90.2822C165.337 90.2822 165.203 90.2496 165.082 90.1843C164.975 90.119 164.874 89.9994 164.78 89.8253C164.444 89.7601 164.115 89.6513 163.793 89.499C163.471 89.3685 163.149 89.2162 162.827 89.0422C162.505 88.8899 162.182 88.7376 161.86 88.5854C161.538 88.4548 161.209 88.3678 160.873 88.3243C160.793 88.172 160.699 88.0524 160.592 87.9654C160.484 87.9001 160.404 87.7805 160.35 87.6064C160.283 87.6064 160.236 87.6173 160.209 87.6391C160.182 87.6826 160.135 87.7043 160.068 87.7043C159.84 87.3998 159.591 87.1387 159.323 86.9212C159.068 86.7036 158.799 86.497 158.518 86.3012C158.249 86.1054 157.981 85.8987 157.712 85.6812C157.457 85.4854 157.215 85.2243 156.987 84.898H156.887C156.779 84.9198 156.685 84.8763 156.605 84.7675C156.538 84.6805 156.45 84.637 156.343 84.637C156.276 84.637 156.222 84.6479 156.182 84.6696C156.141 84.4956 156.081 84.3542 156.001 84.2454C155.92 84.1366 155.833 84.0279 155.739 83.9191C155.658 83.8321 155.578 83.7342 155.497 83.6254C155.417 83.5384 155.356 83.4188 155.316 83.2665C154.98 83.0707 154.651 82.8314 154.329 82.5486C154.02 82.2875 153.745 81.9395 153.504 81.5044C153.235 81.4609 153.014 81.3304 152.839 81.1128C152.665 80.8735 152.504 80.5798 152.356 80.2318C152.034 80.0577 151.738 79.8293 151.47 79.5465C151.201 79.2637 150.933 78.97 150.664 78.6655C150.409 78.3609 150.134 78.089 149.839 77.8497C149.557 77.5886 149.235 77.4037 148.872 77.295C148.859 77.1427 148.819 77.0339 148.752 76.9686C148.684 76.8816 148.604 76.8164 148.51 76.7729C148.429 76.7076 148.349 76.6532 148.268 76.6097C148.188 76.5662 148.127 76.4792 148.087 76.3487C148.047 76.3487 148.006 76.3487 147.966 76.3487C147.926 76.3269 147.886 76.316 147.845 76.316C147.805 76.316 147.758 76.3269 147.704 76.3487C147.664 76.3487 147.624 76.3487 147.584 76.3487L147.604 76.2508C147.604 76.1637 147.584 76.1094 147.543 76.0876C147.517 76.0658 147.476 76.0441 147.423 76.0223C147.369 76.0006 147.322 75.968 147.282 75.9244C147.241 75.8809 147.221 75.783 147.221 75.6308H147.161C147.013 75.6308 146.879 75.5873 146.758 75.5002C146.637 75.4132 146.503 75.348 146.355 75.3045C146.328 75.5437 146.315 75.7722 146.315 75.9897V76.5771C146.315 77.556 146.382 78.5893 146.516 79.677C146.651 80.743 146.859 81.7002 147.141 82.5486C147.423 82.7226 147.664 82.951 147.866 83.2338C148.067 83.5166 148.262 83.843 148.449 84.2128C148.463 84.8001 148.329 85.2896 148.047 85.6812C147.778 86.0945 147.463 86.3012 147.1 86.3012C146.899 86.3012 146.711 86.2142 146.537 86.0401C146.375 85.8878 146.241 85.6594 146.134 85.3549C146.053 85.3549 145.979 85.3766 145.912 85.4201C145.845 85.4854 145.765 85.518 145.671 85.518C145.63 85.518 145.59 85.5071 145.55 85.4854C145.416 85.1156 145.281 84.7893 145.147 84.5065C145.026 84.2237 144.946 83.843 144.906 83.3644C144.758 83.2556 144.664 83.0598 144.624 82.777C144.597 82.4942 144.523 82.2658 144.402 82.0917C144.348 81.1128 144.275 80.1339 144.181 79.1549C144.1 78.176 144.06 77.1971 144.06 76.2181C144.06 76.0006 144.067 75.783 144.08 75.5655C144.093 75.3262 144.107 75.0869 144.12 74.8476C144.093 74.7388 144.053 74.641 143.999 74.5539C143.959 74.4452 143.926 74.3364 143.899 74.2276C143.63 74.3364 143.348 74.4452 143.053 74.5539C142.771 74.641 142.482 74.6845 142.187 74.6845C141.999 74.6845 141.771 74.641 141.503 74.5539C141.234 74.4452 141.026 74.3038 140.878 74.1297C140.771 74.021 140.697 73.8252 140.657 73.5424C140.603 73.2378 140.576 72.9768 140.576 72.7592C140.576 72.3894 140.617 72.0196 140.697 71.6498C140.778 71.2582 140.885 70.921 141.019 70.6382C141.677 70.2031 142.288 69.6701 142.852 69.0393C143.429 68.4084 143.993 67.7231 144.543 66.9835C144.556 66.7659 144.577 66.5484 144.603 66.3309C144.644 66.1133 144.664 65.8849 144.664 65.6456C144.664 65.3846 144.624 65.1344 144.543 64.8951C144.624 64.7646 144.664 64.6014 144.664 64.4056C144.664 64.1881 144.697 63.9923 144.765 63.8183V63.6225C144.765 63.5355 144.758 63.4484 144.744 63.3614C144.744 63.2744 144.724 63.1874 144.684 63.1004C144.778 62.252 144.852 61.4144 144.906 60.5878C144.959 59.7394 144.986 58.8692 144.986 57.9773C144.986 57.912 145.006 57.738 145.046 57.4552C145.1 57.1506 145.134 56.944 145.147 56.8352C145.201 56.3348 145.234 55.8454 145.248 55.3668C145.275 54.8664 145.308 54.3661 145.349 53.8657C145.362 53.6917 144.682 53.6808 144.723 53.398C144.763 53.1152 144.783 52.9194 144.783 52.8107C144.783 52.6584 144.763 52.5605 144.723 52.517C144.696 52.4517 144.669 52.3538 144.642 52.2233C144.723 51.723 145.469 51.0051 145.469 50.5047C145.483 49.9826 145.51 49.4714 145.55 48.9711C145.778 48.8188 145.959 48.6665 146.094 48.5142C146.228 48.3619 146.422 48.2858 146.677 48.2858H146.718C146.745 48.5469 146.805 48.797 146.899 49.0363C146.993 49.2539 147.087 49.4823 147.181 49.7216C147.288 49.9391 147.382 50.1567 147.463 50.3742C147.543 50.57 147.584 50.7658 147.584 50.9616C147.584 51.3314 147.563 51.7338 147.523 52.1689C147.483 52.604 147.449 53.0065 147.423 53.3763C147.355 54.3552 147.295 55.3233 147.241 56.2805C147.188 57.2159 147.107 58.1731 147 59.152C147.04 59.4566 147.06 59.7394 147.06 60.0004C147.06 60.392 147.04 60.7836 147 61.1751C146.959 61.5667 146.939 61.9692 146.939 62.3825C146.939 62.5783 146.946 62.7849 146.959 63.0025C146.986 63.22 147.027 63.4158 147.08 63.5898C147.537 63.3941 147.946 62.9916 148.309 62.3825C148.362 62.2955 148.416 62.1867 148.47 62.0562C148.537 61.9039 148.604 61.7843 148.671 61.6972C148.805 61.5232 148.946 61.3709 149.094 61.2404C149.255 61.0881 149.409 60.9358 149.557 60.7836C149.906 60.4137 150.242 60.033 150.564 59.6415C150.899 59.2281 151.235 58.8257 151.571 58.4341C152.564 57.2594 153.524 56.0412 154.45 54.7794C155.39 53.4959 156.303 52.1472 157.189 50.7331C157.229 50.3633 157.309 50.0696 157.43 49.8521C157.551 49.6346 157.658 49.3735 157.752 49.069C158.007 48.9167 158.229 48.6883 158.417 48.3837C158.497 48.4272 158.578 48.4598 158.659 48.4816C158.752 48.4816 158.84 48.4816 158.92 48.4816C159.014 48.4816 159.102 48.4925 159.182 48.5142C159.276 48.5142 159.357 48.5469 159.424 48.6121C159.437 48.9384 159.457 49.2321 159.484 49.4932C159.511 49.7542 159.591 50.0044 159.726 50.2437C159.726 50.2872 159.726 50.3307 159.726 50.3742C159.739 50.4177 159.746 50.4612 159.746 50.5047C159.746 50.744 159.706 50.9398 159.625 51.0921C159.545 51.2444 159.498 51.4293 159.484 51.6468L158.437 53.3436C158.088 53.9092 157.766 54.5184 157.47 55.171C157.363 55.1927 157.269 55.2471 157.189 55.3341C157.108 55.4212 157.027 55.5191 156.947 55.6278C156.88 55.7148 156.806 55.8019 156.725 55.8889C156.645 55.9759 156.558 56.0412 156.464 56.0847C156.222 56.6068 155.947 57.0854 155.638 57.5204C155.329 57.9338 155.014 58.3362 154.692 58.7278C154.37 59.1194 154.047 59.5218 153.725 59.9351C153.416 60.3267 153.128 60.7618 152.859 61.2404C152.577 61.4579 152.302 61.719 152.034 62.0235C151.779 62.3064 151.571 62.6653 151.409 63.1004H151.309C151.242 63.1004 151.188 63.133 151.148 63.1983C151.107 63.2418 151.054 63.2635 150.987 63.2635C150.262 64.286 149.51 65.254 148.731 66.1677C147.953 67.0596 147.208 68.0386 146.496 69.1045V69.9203C146.724 70.1378 146.973 70.3445 147.241 70.5403C147.51 70.7143 147.772 70.9101 148.027 71.1277C148.295 71.3452 148.543 71.5845 148.772 71.8455C149.013 72.0848 149.221 72.3785 149.396 72.7266C149.423 72.7048 149.456 72.694 149.497 72.694C149.617 72.694 149.711 72.7592 149.778 72.8897C149.846 72.9985 149.96 73.0311 150.121 72.9876C150.174 73.3357 150.295 73.5859 150.483 73.7382C150.671 73.8904 150.859 74.021 151.047 74.1297C151.208 74.3908 151.356 74.641 151.49 74.8802C151.624 75.0978 151.819 75.2392 152.074 75.3045C152.101 75.3915 152.121 75.4894 152.134 75.5981C152.148 75.7069 152.175 75.8048 152.215 75.8918C152.47 76.0223 152.712 76.2072 152.94 76.4465C153.181 76.6858 153.416 76.936 153.645 77.1971C153.873 77.4364 154.101 77.6757 154.329 77.9149C154.571 78.1325 154.826 78.3065 155.094 78.437C155.135 78.6546 155.209 78.8069 155.316 78.8939C155.437 78.9809 155.531 79.1114 155.598 79.2855H155.96C156.001 79.3942 156.054 79.503 156.121 79.6118C156.188 79.6988 156.235 79.8293 156.262 80.0033C156.37 80.0469 156.491 80.1121 156.625 80.1991C156.759 80.2644 156.88 80.3514 156.987 80.4602C157.027 80.5254 157.054 80.6016 157.068 80.6886C157.095 80.7756 157.135 80.8518 157.189 80.917C157.269 81.0258 157.39 81.1128 157.551 81.1781C157.726 81.2216 157.873 81.2977 157.994 81.4065C158.236 81.624 158.471 81.8633 158.699 82.1244C158.927 82.4072 159.169 82.6682 159.424 82.9075L160.209 83.5928C160.343 83.7016 160.464 83.8212 160.571 83.9517C160.692 84.0823 160.813 84.2019 160.934 84.3107C161.176 84.4847 161.431 84.5935 161.699 84.637C161.981 84.7022 162.236 84.8219 162.464 84.9959C162.531 85.0612 162.578 85.1373 162.605 85.2243C162.632 85.3331 162.679 85.4201 162.746 85.4854C162.854 85.5942 163.021 85.6703 163.25 85.7138C163.478 85.7573 163.666 85.8335 163.813 85.9422C164.001 86.0728 164.183 86.1924 164.357 86.3012C164.545 86.4317 164.733 86.584 164.921 86.758C165.324 86.8015 165.72 86.8777 166.109 86.9864C166.512 87.0952 166.908 87.204 167.297 87.3127C167.686 87.4215 168.076 87.5194 168.465 87.6064C168.868 87.6934 169.27 87.7261 169.673 87.7043C169.673 87.7478 169.686 87.7696 169.713 87.7696C169.754 87.7913 169.787 87.8022 169.814 87.8022C169.908 88.0415 169.988 88.2808 170.056 88.5201C170.123 88.7594 170.156 89.0096 170.156 89.2706Z" fill="white"/>
<defs>
<filter id="filter0_d_125_223" x="85.5934" y="14.3343" width="25.5905" height="30.278" filterUnits="userSpaceOnUse" color-interpolation-filters="sRGB">
<feFlood flood-opacity="0" result="BackgroundImageFix"/>
<feColorMatrix in="SourceAlpha" type="matrix" values="0 0 0 0 0 0 0 0 0 0 0 0 0 0 0 0 0 0 127 0" result="hardAlpha"/>
<feOffset/>
<feGaussianBlur stdDeviation="3.66667"/>
<feComposite in2="hardAlpha" operator="out"/>
<feColorMatrix type="matrix" values="0 0 0 0 1 0 0 0 0 0.666667 0 0 0 0 0.666667 0 0 0 1 0"/>
<feBlend mode="normal" in2="BackgroundImageFix" result="effect1_dropShadow_125_223"/>
<feBlend mode="normal" in="SourceGraphic" in2="effect1_dropShadow_125_223" result="shape"/>
</filter>
<linearGradient id="paint0_linear_125_223" x1="0" y1="65.8586" x2="198" y2="65.8586" gradientUnits="userSpaceOnUse">
<stop stop-color="#F86F65"/>
<stop offset="1" stop-color="#FE5493"/>
</linearGradient>
<linearGradient id="paint1_linear_125_223" x1="98.3886" y1="21.6676" x2="98.3886" y2="37.2789" gradientUnits="userSpaceOnUse">
<stop stop-color="white"/>
<stop offset="1" stop-color="white"/>
</linearGradient>
</defs>
</svg>
