<svg width="202" height="87" viewBox="0 0 202 87" fill="none" xmlns="http://www.w3.org/2000/svg">
<path d="M12.4399 86.4584C10.764 86.4584 9.2195 86.0819 7.80614 85.3286C6.41297 84.5465 5.19136 83.4457 4.14152 82.0263C3.11177 80.6069 2.30426 78.9411 1.7186 77.0292C1.15334 75.1173 0.870605 73.017 0.870605 70.7286C0.870605 68.4402 1.15334 66.3399 1.7186 64.428C2.30426 62.5161 3.12197 60.8504 4.17181 59.431C5.22166 58.0115 6.45347 56.9253 7.86673 56.172C9.28009 55.3899 10.8348 54.9988 12.5308 54.9988C14.4085 54.9988 16.0944 55.4479 17.5886 56.3458C19.1029 57.2438 20.3749 58.5474 21.4047 60.2566L18.2549 64.428C17.4876 63.2694 16.6497 62.4148 15.7411 61.8644C14.8325 61.285 13.8433 60.9953 12.7731 60.9953C11.7434 60.9953 10.8045 61.227 9.95652 61.6905C9.10853 62.154 8.3714 62.8203 7.74555 63.6893C7.1399 64.5584 6.66541 65.5867 6.32209 66.7745C5.99917 67.9623 5.83751 69.2802 5.83751 70.7286C5.83751 72.148 5.99917 73.4516 6.32209 74.6394C6.66541 75.8271 7.1399 76.87 7.74555 77.7679C8.3714 78.637 9.09832 79.3033 9.92623 79.7668C10.7742 80.2302 11.7029 80.462 12.7126 80.462C13.6817 80.462 14.6206 80.2447 15.5292 79.8102C16.4579 79.3468 17.3564 78.579 18.2246 77.5072L21.011 82.5912C19.8601 83.8367 18.5174 84.7927 16.9829 85.459C15.4686 86.1253 13.9543 86.4584 12.4399 86.4584ZM16.5286 81.6786V70.2506H21.011V82.5912L16.5286 81.6786ZM24.024 85.937V53.6952H28.7485V85.937H24.024ZM39.6753 86.2845C37.9388 86.2845 36.3943 85.7632 35.0415 84.7203C33.7089 83.6775 32.6489 82.2582 31.8615 80.462C31.0942 78.637 30.7106 76.5658 30.7106 74.2483C30.7106 71.9018 31.0942 69.8307 31.8615 68.0346C32.6489 66.2096 33.7089 64.7902 35.0415 63.7762C36.3943 62.7333 37.9388 62.212 39.6753 62.212C41.3915 62.212 42.9261 62.7333 44.279 63.7762C45.6319 64.7902 46.6911 66.195 47.4587 67.9911C48.2264 69.7872 48.6097 71.8729 48.6097 74.2483C48.6097 76.5658 48.2264 78.637 47.4587 80.462C46.6911 82.2582 45.6319 83.6775 44.279 84.7203C42.9261 85.7632 41.3915 86.2845 39.6753 86.2845ZM39.6753 80.7227C40.4628 80.7227 41.1696 80.4619 41.7954 79.9406C42.4213 79.4191 42.9159 78.6804 43.2794 77.7245C43.6429 76.7396 43.8245 75.5807 43.8245 74.2483C43.8245 72.8867 43.6429 71.728 43.2794 70.7721C42.9159 69.8161 42.4213 69.0774 41.7954 68.556C41.1696 68.0345 40.4628 67.7738 39.6753 67.7738C38.8879 67.7738 38.1812 68.0345 37.5553 68.556C36.9295 69.0774 36.4246 69.8161 36.041 70.7721C35.6776 71.728 35.4958 72.8867 35.4958 74.2483C35.4958 75.5807 35.6776 76.7396 36.041 77.7245C36.4246 78.6804 36.9295 79.4191 37.5553 79.9406C38.1812 80.4619 38.8879 80.7227 39.6753 80.7227ZM60.1879 86.2845C58.7537 86.2845 57.5224 85.8501 56.493 84.981C55.4627 84.112 54.6755 82.7938 54.1304 81.0269C53.5853 79.2307 53.3123 76.9712 53.3123 74.2483C53.3123 71.4962 53.5946 69.2366 54.1603 67.4696C54.7455 65.7028 55.5533 64.3845 56.5837 63.5154C57.6131 62.6465 58.8145 62.212 60.1879 62.212C61.7222 62.212 63.0946 62.7044 64.3063 63.6893C65.5376 64.6741 66.5072 66.0646 67.214 67.8608C67.9405 69.6569 68.3042 71.7861 68.3042 74.2483C68.3042 76.6815 67.9405 78.7962 67.214 80.5923C66.5072 82.3884 65.5376 83.7933 64.3063 84.8073C63.0946 85.792 61.7222 86.2845 60.1879 86.2845ZM50.556 85.937V53.6952H55.2813V67.2959L54.9784 74.2048L55.0691 81.1572V85.937H50.556ZM59.3698 80.7227C60.157 80.7227 60.8536 80.4619 61.4594 79.9406C62.0859 79.4191 62.5805 78.6804 62.9432 77.7245C63.3275 76.7396 63.5191 75.5807 63.5191 74.2483C63.5191 72.8867 63.3275 71.728 62.9432 70.7721C62.5805 69.8161 62.0859 69.0774 61.4594 68.556C60.8536 68.0345 60.157 67.7738 59.3698 67.7738C58.5826 67.7738 57.8758 68.0345 57.2493 68.556C56.6239 69.0774 56.1293 69.8161 55.7656 70.7721C55.4019 71.728 55.2205 72.8867 55.2205 74.2483C55.2205 75.5807 55.4019 76.7396 55.7656 77.7245C56.1293 78.6804 56.6239 79.4191 57.2493 79.9406C57.8758 80.4619 58.5826 80.7227 59.3698 80.7227ZM79.9834 85.937V81.3744L79.6805 80.3751V72.2061C79.6805 70.7574 79.3683 69.6277 78.7418 68.8168C78.136 68.0057 77.1973 67.6 75.9258 67.6C75.0572 67.6 74.1989 67.8028 73.3509 68.2083C72.5236 68.5849 71.8167 69.1064 71.2315 69.7727L69.5355 65.0364C70.4237 64.1384 71.4932 63.4432 72.7451 62.9506C73.997 62.4582 75.2695 62.212 76.5616 62.212C79.0448 62.212 80.9736 63.0522 82.3461 64.7322C83.7196 66.4122 84.4058 69.034 84.4058 72.5971V85.937H79.9834ZM75.017 86.2845C73.7445 86.2845 72.6544 85.9805 71.7456 85.3722C70.8379 84.7349 70.1413 83.8801 69.656 82.8084C69.1718 81.7367 68.9296 80.5343 68.9296 79.2019C68.9296 77.8113 69.1614 76.5947 69.6261 75.5518C70.1104 74.509 70.8677 73.6979 71.8971 73.1184C72.9275 72.5101 74.27 72.2061 75.9258 72.2061H80.2565V76.1602H76.44C75.3293 76.1602 74.5627 76.4209 74.1381 76.9424C73.7342 77.4638 73.5333 78.1155 73.5333 78.8977C73.5333 79.7668 73.7652 80.462 74.2299 80.9834C74.7141 81.4759 75.3705 81.7221 76.1979 81.7221C76.9851 81.7221 77.6919 81.4614 78.3184 80.9399C78.9438 80.3897 79.3982 79.5929 79.6805 78.55L80.408 81.6786C80.0648 83.1849 79.4384 84.3292 78.5306 85.1114C77.6218 85.8935 76.4503 86.2845 75.017 86.2845ZM87.4701 85.937V53.6952H92.1944V85.937H87.4701ZM95.7018 85.937V55.5203H99.7593L112.268 77.4203H110.299V55.5203H115.145V85.937H111.117L98.5786 64.0369H100.548V85.937H95.7018ZM126.37 86.2845C124.633 86.2845 123.088 85.7632 121.736 84.7203C120.404 83.6775 119.344 82.2582 118.556 80.462C117.788 78.637 117.405 76.5658 117.405 74.2483C117.405 71.9018 117.788 69.8307 118.556 68.0346C119.344 66.2096 120.404 64.7902 121.736 63.7762C123.088 62.7333 124.633 62.212 126.37 62.212C128.085 62.212 129.622 62.7333 130.973 63.7762C132.325 64.7902 133.386 66.195 134.153 67.9911C134.921 69.7872 135.304 71.8729 135.304 74.2483C135.304 76.5658 134.921 78.637 134.153 80.462C133.386 82.2582 132.325 83.6775 130.973 84.7203C129.622 85.7632 128.085 86.2845 126.37 86.2845ZM126.37 80.7227C127.157 80.7227 127.865 80.4619 128.49 79.9406C129.115 79.4191 129.61 78.6804 129.974 77.7245C130.338 76.7396 130.519 75.5807 130.519 74.2483C130.519 72.8867 130.338 71.728 129.974 70.7721C129.61 69.8161 129.115 69.0774 128.49 68.556C127.865 68.0345 127.157 67.7738 126.37 67.7738C125.583 67.7738 124.875 68.0345 124.249 68.556C123.625 69.0774 123.119 69.8161 122.736 70.7721C122.372 71.728 122.191 72.8867 122.191 74.2483C122.191 75.5807 122.372 76.7396 122.736 77.7245C123.119 78.6804 123.625 79.4191 124.249 79.9406C124.875 80.4619 125.583 80.7227 126.37 80.7227ZM158.119 62.212C159.411 62.212 160.55 62.5886 161.541 63.3418C162.549 64.0658 163.336 65.1956 163.903 66.7311C164.487 68.2373 164.782 70.1782 164.782 72.5536V85.937H160.057V73.5965C160.057 71.7134 159.785 70.323 159.24 69.4251C158.695 68.5272 157.926 68.0781 156.938 68.0781C156.249 68.0781 155.635 68.3099 155.09 68.7732C154.545 69.2078 154.121 69.8742 153.818 70.7721C153.515 71.67 153.363 72.8144 153.363 74.2048V85.937H148.639V73.5965C148.639 71.7134 148.366 70.323 147.821 69.4251C147.296 68.5272 146.538 68.0781 145.55 68.0781C144.862 68.0781 144.248 68.3099 143.703 68.7732C143.158 69.2078 142.733 69.8742 142.43 70.7721C142.127 71.67 141.976 72.8144 141.976 74.2048V85.937H137.251V62.5595H141.765V68.947L140.916 67.0786C141.481 65.4855 142.279 64.2831 143.309 63.472C144.358 62.632 145.55 62.212 146.882 62.212C148.375 62.212 149.678 62.7623 150.79 63.8631C151.919 64.9348 152.667 66.586 153.031 68.8168L151.364 68.1649C151.91 66.3398 152.778 64.8914 153.969 63.8197C155.181 62.7478 156.564 62.212 158.119 62.212ZM177.8 85.937V81.3744L177.497 80.3751V72.2061C177.497 70.7574 177.184 69.6277 176.558 68.8168C175.952 68.0057 175.014 67.6 173.741 67.6C172.871 67.6 172.015 67.8028 171.167 68.2083C170.339 68.5849 169.631 69.1064 169.047 69.7727L167.351 65.0364C168.238 64.1384 169.308 63.4432 170.561 62.9506C171.811 62.4582 173.084 62.212 174.377 62.212C176.861 62.212 178.788 63.0522 180.161 64.7322C181.534 66.4122 182.221 69.034 182.221 72.5971V85.937H177.8ZM172.832 86.2845C171.561 86.2845 170.471 85.9805 169.562 85.3722C168.653 84.7349 167.957 83.8801 167.472 82.8084C166.987 81.7367 166.745 80.5343 166.745 79.2019C166.745 77.8113 166.977 76.5947 167.441 75.5518C167.926 74.509 168.683 73.6979 169.713 73.1184C170.743 72.5101 172.084 72.2061 173.741 72.2061H178.072V76.1602H174.256C173.144 76.1602 172.378 76.4209 171.954 76.9424C171.549 77.4638 171.349 78.1155 171.349 78.8977C171.349 79.7668 171.58 80.462 172.045 80.9834C172.529 81.4759 173.186 81.7221 174.014 81.7221C174.801 81.7221 175.506 81.4614 176.134 80.9399C176.759 80.3897 177.213 79.5929 177.497 78.55L178.223 81.6786C177.88 83.1849 177.255 84.3292 176.346 85.1114C175.437 85.8935 174.264 86.2845 172.832 86.2845ZM192.399 86.2845C190.865 86.2845 189.483 85.792 188.25 84.8073C187.019 83.7933 186.04 82.3884 185.312 80.5923C184.606 78.7962 184.252 76.6815 184.252 74.2483C184.252 71.7861 184.606 69.6569 185.312 67.8608C186.04 66.0646 187.019 64.6741 188.25 63.6893C189.483 62.7044 190.865 62.212 192.399 62.212C193.772 62.212 194.974 62.6465 196.003 63.5154C197.033 64.3845 197.831 65.7028 198.396 67.4696C198.962 69.2366 199.244 71.4962 199.244 74.2483C199.244 76.9712 198.972 79.2307 198.426 81.0269C197.881 82.7938 197.093 84.112 196.064 84.981C195.055 85.8501 193.833 86.2845 192.399 86.2845ZM193.217 80.7227C193.985 80.7227 194.681 80.4619 195.307 79.9406C195.934 79.4191 196.428 78.6804 196.79 77.7245C197.176 76.7396 197.366 75.5807 197.366 74.2483C197.366 72.8867 197.176 71.728 196.79 70.7721C196.428 69.8161 195.934 69.0774 195.307 68.556C194.681 68.0345 193.985 67.7738 193.217 67.7738C192.43 67.7738 191.724 68.0345 191.097 68.556C190.471 69.0774 189.967 69.8161 189.583 70.7721C189.219 71.728 189.038 72.8867 189.038 74.2483C189.038 75.5807 189.219 76.7396 189.583 77.7245C189.967 78.6804 190.471 79.4191 191.097 79.9406C191.724 80.4619 192.43 80.7227 193.217 80.7227ZM197.487 85.937V81.1572L197.578 74.2048L197.276 67.2959V53.6952H202V85.937H197.487Z" fill="#0B3B2D"/>
<path fill-rule="evenodd" clip-rule="evenodd" d="M99.1606 0C110.218 0 119.183 8.96413 119.183 20.0219C119.183 31.0797 110.218 40.0439 99.1606 40.0439C88.1028 40.0439 79.1387 31.0797 79.1387 20.0219C79.1387 8.96413 88.1028 0 99.1606 0ZM98.4369 1.49823C96.1529 1.81968 93.9779 3.65508 92.2895 6.72477C91.7997 7.61518 91.3578 8.59888 90.9728 9.66107C93.2685 9.08408 95.7903 8.744 98.4369 8.6914V1.49823ZM89.2806 10.142C89.7595 8.63905 90.3452 7.25635 91.0213 6.02725C91.8583 4.50552 92.8515 3.19145 93.9706 2.18216C87.8851 3.94955 83.0882 8.74636 81.3208 14.832C82.3301 13.7128 83.6442 12.7195 85.1659 11.8826C86.395 11.2066 87.7777 10.6207 89.2806 10.142ZM88.7997 11.834C88.2228 14.1298 87.8827 16.6517 87.8301 19.2982H80.6369C80.9584 17.014 82.7938 14.8391 85.8634 13.1508C86.7539 12.6611 87.7376 12.2192 88.7997 11.834ZM89.2778 19.2982C89.3376 16.41 89.7533 13.6984 90.4412 11.3026C92.8371 10.6146 95.5488 10.1988 98.4369 10.139V13.2654C97.3594 16.0237 95.1618 18.2212 92.4033 19.2982H89.2778ZM87.8301 20.7457H80.6369C80.9584 23.0298 82.7938 25.2047 85.8634 26.893C86.7539 27.3828 87.7376 27.8246 88.7997 28.2098C88.2228 25.9141 87.8827 23.3922 87.8301 20.7457ZM90.4412 28.7414C89.7533 26.3455 89.3376 23.6339 89.2778 20.7457H92.4033C95.1618 21.8227 97.3596 24.0202 98.4369 26.7786V29.9049C95.5488 29.8451 92.8371 29.4291 90.4412 28.7414ZM89.2806 29.902C87.7777 29.4232 86.395 28.8373 85.1659 28.1613C83.6442 27.3244 82.3301 26.331 81.3208 25.2119C83.0882 31.2975 87.8851 36.0943 93.9706 37.8617C92.8515 36.8524 91.8583 35.5383 91.0213 34.0165C90.3452 32.7875 89.7595 31.4049 89.2806 29.902ZM98.4369 38.5456C96.1529 38.2242 93.9779 36.3888 92.2895 33.3191C91.7997 32.4288 91.3578 31.4449 90.9728 30.3828C93.2685 30.9598 95.7903 31.2998 98.4369 31.3525V38.5456ZM104.351 37.8617C105.47 36.8524 106.463 35.5383 107.3 34.0165C107.976 32.7875 108.562 31.4049 109.041 29.902C110.544 29.4232 111.926 28.8373 113.155 28.1613C114.677 27.3244 115.991 26.331 117 25.2119C115.233 31.2975 110.436 36.0943 104.351 37.8617ZM107.349 30.3828C106.963 31.4449 106.521 32.4288 106.032 33.3191C104.344 36.3888 102.169 38.2242 99.8843 38.5456V31.3525C102.531 31.2998 105.053 30.9598 107.349 30.3828ZM109.522 28.2098C110.584 27.8246 111.567 27.3828 112.458 26.893C115.527 25.2047 117.363 23.0298 117.684 20.7457H110.491C110.438 23.3922 110.098 25.9141 109.522 28.2098ZM109.044 20.7457C108.984 23.6339 108.568 26.3455 107.88 28.7414C105.484 29.4291 102.773 29.8451 99.8843 29.9049V26.7809C100.961 24.0214 103.159 21.823 105.919 20.7457H109.044ZM110.491 19.2982H117.684C117.363 17.014 115.527 14.8391 112.458 13.1508C111.567 12.6611 110.584 12.2192 109.522 11.834C110.098 14.1298 110.438 16.6517 110.491 19.2982ZM107.88 11.3026C108.568 13.6984 108.984 16.41 109.044 19.2982H105.919C103.159 18.2208 100.961 16.0224 99.8843 13.2631V10.139C102.773 10.1988 105.484 10.6146 107.88 11.3026ZM109.041 10.142C110.544 10.6207 111.926 11.2066 113.155 11.8826C114.677 12.7195 115.991 13.7128 117 14.832C115.233 8.74636 110.436 3.94955 104.351 2.18216C105.47 3.19145 106.463 4.50552 107.3 6.02725C107.976 7.25635 108.562 8.63905 109.041 10.142ZM99.8843 1.49823C102.169 1.81968 104.344 3.65508 106.032 6.72477C106.521 7.61519 106.963 8.59888 107.349 9.66107C105.053 9.08408 102.531 8.744 99.8843 8.6914V1.49823Z" fill="#0B3B2D"/>
</svg>
