<svg width="214" height="153" viewBox="0 0 214 153" fill="none" xmlns="http://www.w3.org/2000/svg">
<path d="M12.8232 0.5H200.902C207.708 0.500214 213.226 6.01923 213.226 12.8271V140.026C213.226 146.834 207.708 152.353 200.902 152.354H12.8232C6.01741 152.353 0.500025 146.834 0.5 140.026V12.8271C0.5 6.0192 6.0174 0.500155 12.8232 0.5Z" fill="white" stroke="#006FFD"/>
<path d="M47.0435 31.11V23.3209H49.1609V24.6952H49.2547C49.4216 24.2388 49.6998 23.8787 50.0892 23.615C50.4786 23.3513 50.9445 23.2195 51.4869 23.2195C52.0363 23.2195 52.504 23.353 52.89 23.6201C53.2755 23.8838 53.5331 24.2421 53.6616 24.6952H53.745C53.9086 24.2489 54.2039 23.8922 54.6319 23.6252C55.0631 23.3547 55.5724 23.2195 56.1598 23.2195C56.9072 23.2195 57.5141 23.4511 57.9799 23.9142C58.4493 24.374 58.6843 25.0265 58.6843 25.8716V31.11H56.4677V26.2976C56.4677 25.8648 56.3492 25.5403 56.1131 25.3239C55.8766 25.1076 55.5807 24.9994 55.2262 24.9994C54.8228 24.9994 54.5081 25.1245 54.2821 25.3747C54.0565 25.6215 53.9432 25.9477 53.9432 26.3534V31.11H51.7894V26.2519C51.7894 25.8699 51.6764 25.5657 51.4504 25.3392C51.2279 25.1127 50.9341 24.9994 50.569 24.9994C50.3222 24.9994 50.0996 25.0603 49.9015 25.182C49.7068 25.3003 49.552 25.4677 49.4373 25.684C49.3226 25.897 49.2652 26.1471 49.2652 26.4345V31.11H47.0435ZM64.0584 31.2621C63.248 31.2621 62.5478 31.0948 61.9567 30.7601C61.3692 30.422 60.9155 29.9521 60.5956 29.3503C60.2756 28.7452 60.1157 28.0437 60.1157 27.2459C60.1157 26.4413 60.2756 25.7381 60.5956 25.1363C60.9155 24.5312 61.3692 24.0613 61.9567 23.7266C62.5478 23.3885 63.248 23.2195 64.0584 23.2195C64.8682 23.2195 65.5674 23.3885 66.1549 23.7266C66.746 24.0613 67.2013 24.5312 67.5212 25.1363C67.8412 25.7381 68.0011 26.4413 68.0011 27.2459C68.0011 28.0437 67.8412 28.7452 67.5212 29.3503C67.2013 29.9521 66.746 30.422 66.1549 30.7601C65.5674 31.0948 64.8682 31.2621 64.0584 31.2621ZM64.0689 29.5887C64.4376 29.5887 64.745 29.4873 64.992 29.2845C65.2385 29.0782 65.4247 28.7976 65.5501 28.4426C65.6786 28.0877 65.7431 27.6837 65.7431 27.2307C65.7431 26.7776 65.6786 26.3737 65.5501 26.0187C65.4247 25.6637 65.2385 25.3831 64.992 25.1769C64.745 24.9707 64.4376 24.8675 64.0689 24.8675C63.697 24.8675 63.3839 24.9707 63.13 25.1769C62.8798 25.3831 62.6905 25.6637 62.5614 26.0187C62.4366 26.3737 62.3737 26.7776 62.3737 27.2307C62.3737 27.6837 62.4366 28.0877 62.5614 28.4426C62.6905 28.7976 62.8798 29.0782 63.13 29.2845C63.3839 29.4873 63.697 29.5887 64.0689 29.5887ZM69.4456 31.11V23.3209H71.5631V24.6952H71.657C71.8238 24.2388 72.1023 23.8787 72.4915 23.615C72.8812 23.3513 73.3469 23.2195 73.8893 23.2195C74.4384 23.2195 74.9063 23.353 75.2924 23.6201C75.6779 23.8838 75.9354 24.2421 76.0639 24.6952H76.1473C76.3109 24.2489 76.6062 23.8922 77.0342 23.6252C77.4654 23.3547 77.9747 23.2195 78.5621 23.2195C79.3096 23.2195 79.9164 23.4511 80.3822 23.9142C80.8516 24.374 81.0861 25.0265 81.0861 25.8716V31.11H78.87V26.2976C78.87 25.8648 78.7515 25.5403 78.5149 25.3239C78.2789 25.1076 77.9831 24.9994 77.6285 24.9994C77.2252 24.9994 76.9105 25.1245 76.6844 25.3747C76.4589 25.6215 76.3456 25.9477 76.3456 26.3534V31.11H74.1919V26.2519C74.1919 25.8699 74.0786 25.5657 73.8526 25.3392C73.6302 25.1127 73.3365 24.9994 72.9714 24.9994C72.7243 24.9994 72.502 25.0603 72.3037 25.182C72.1091 25.3003 71.9544 25.4677 71.8395 25.684C71.7246 25.897 71.6675 26.1471 71.6675 26.4345V31.11H69.4456ZM86.4607 31.2621C85.6504 31.2621 84.9501 31.0948 84.359 30.7601C83.7716 30.422 83.3173 29.9521 82.9979 29.3503C82.678 28.7452 82.518 28.0437 82.518 27.2459C82.518 26.4413 82.678 25.7381 82.9979 25.1363C83.3173 24.5312 83.7716 24.0613 84.359 23.7266C84.9501 23.3885 85.6504 23.2195 86.4607 23.2195C87.2706 23.2195 87.9697 23.3885 88.5572 23.7266C89.1483 24.0613 89.6036 24.5312 89.9235 25.1363C90.2435 25.7381 90.4035 26.4413 90.4035 27.2459C90.4035 28.0437 90.2435 28.7452 89.9235 29.3503C89.6036 29.9521 89.1483 30.422 88.5572 30.7601C87.9697 31.0948 87.2706 31.2621 86.4607 31.2621ZM86.4712 29.5887C86.8394 29.5887 87.1473 29.4873 87.3944 29.2845C87.6409 29.0782 87.8271 28.7976 87.9524 28.4426C88.0809 28.0877 88.1455 27.6837 88.1455 27.2307C88.1455 26.7776 88.0809 26.3737 87.9524 26.0187C87.8271 25.6637 87.6409 25.3831 87.3944 25.1769C87.1473 24.9707 86.8394 24.8675 86.4712 24.8675C86.0993 24.8675 85.7862 24.9707 85.5324 25.1769C85.2822 25.3831 85.0923 25.6637 84.9638 26.0187C84.839 26.3737 84.776 26.7776 84.776 27.2307C84.776 27.6837 84.839 28.0877 84.9638 28.4426C85.0923 28.7976 85.2822 29.0782 85.5324 29.2845C85.7862 29.4873 86.0993 29.5887 86.4712 29.5887ZM94.7999 31.2368C94.1915 31.2368 93.6402 31.0846 93.1467 30.7804C92.6562 30.4727 92.2671 30.0214 91.9786 29.4264C91.6932 28.8281 91.5506 28.0944 91.5506 27.2256C91.5506 26.3331 91.6985 25.591 91.9943 24.9994C92.2896 24.4044 92.6825 23.9598 93.1729 23.6657C93.6665 23.3682 94.2072 23.2195 94.7947 23.2195C95.2431 23.2195 95.6171 23.2938 95.9161 23.4426C96.2187 23.588 96.4621 23.7705 96.6462 23.9903C96.834 24.2066 96.9766 24.4196 97.0737 24.6292H97.1419V20.7246H99.3579V31.11H97.1676V29.8625H97.0737C96.9693 30.0789 96.8219 30.2935 96.6305 30.5066C96.4427 30.7161 96.1977 30.8902 95.8951 31.0289C95.5961 31.1675 95.2311 31.2368 94.7999 31.2368ZM95.5038 29.5177C95.862 29.5177 96.1647 29.423 96.4112 29.2337C96.6619 29.041 96.8529 28.7723 96.985 28.4274C97.1209 28.0826 97.1885 27.6786 97.1885 27.2154C97.1885 26.7523 97.1224 26.35 96.9903 26.0086C96.8581 25.6671 96.6672 25.4034 96.4165 25.2175C96.1663 25.0315 95.862 24.9385 95.5038 24.9385C95.1387 24.9385 94.8314 25.0349 94.5807 25.2276C94.3305 25.4203 94.1411 25.6874 94.0126 26.0288C93.8836 26.3703 93.8196 26.7658 93.8196 27.2154C93.8196 27.6685 93.8836 28.0691 94.0126 28.4173C94.1448 28.7621 94.3342 29.0326 94.5807 29.2287C94.8314 29.4213 95.1387 29.5177 95.5038 29.5177ZM103.469 31.2571C102.958 31.2571 102.502 31.1708 102.103 30.9984C101.703 30.8227 101.386 30.564 101.153 30.2225C100.924 29.8777 100.809 29.4484 100.809 28.9345C100.809 28.5018 100.891 28.1384 101.054 27.8443C101.218 27.5501 101.44 27.3135 101.722 27.1343C102.004 26.9551 102.323 26.8199 102.682 26.7286C103.043 26.6373 103.422 26.5731 103.818 26.5359C104.285 26.4886 104.66 26.4447 104.945 26.4041C105.23 26.3602 105.437 26.2959 105.565 26.2114C105.695 26.1269 105.758 26.0018 105.758 25.8361V25.8057C105.758 25.4845 105.654 25.2361 105.446 25.0603C105.24 24.8845 104.949 24.7966 104.569 24.7966C104.17 24.7966 103.851 24.8828 103.615 25.0552C103.379 25.2242 103.222 25.4372 103.146 25.6942L101.091 25.5319C101.195 25.0586 101.4 24.6495 101.706 24.3047C102.012 23.9565 102.407 23.6894 102.89 23.5034C103.377 23.3141 103.94 23.2195 104.58 23.2195C105.025 23.2195 105.451 23.2702 105.858 23.3716C106.268 23.4731 106.631 23.6302 106.948 23.8432C107.268 24.0562 107.52 24.3301 107.704 24.6647C107.888 24.996 107.98 25.3933 107.98 25.8564V31.11H105.873V30.0299H105.811C105.682 30.2733 105.51 30.4879 105.294 30.6739C105.079 30.8564 104.82 31.0001 104.518 31.1049C104.215 31.2063 103.866 31.2571 103.469 31.2571ZM104.105 29.7662C104.432 29.7662 104.72 29.7036 104.971 29.5786C105.221 29.4501 105.418 29.2777 105.56 29.0613C105.703 28.8449 105.774 28.5998 105.774 28.326V27.4995C105.704 27.5434 105.609 27.584 105.487 27.6211C105.369 27.6549 105.236 27.6871 105.086 27.7175C104.936 27.7445 104.787 27.7699 104.637 27.7936C104.488 27.8138 104.352 27.8324 104.231 27.8493C103.97 27.8865 103.742 27.9457 103.547 28.0268C103.353 28.1079 103.202 28.2178 103.093 28.3565C102.986 28.4917 102.932 28.6607 102.932 28.8635C102.932 29.1577 103.042 29.3825 103.26 29.538C103.483 29.6901 103.765 29.7662 104.105 29.7662ZM111.926 20.7246V31.11H109.704V20.7246H111.926ZM118.697 25.9883V27.7023H113.825V25.9883H118.697ZM122.811 20.7246V31.11H120.59V20.7246H122.811ZM124.591 31.11V23.3209H126.813V31.11H124.591ZM125.707 22.3168C125.377 22.3168 125.094 22.2103 124.857 21.9974C124.624 21.781 124.508 21.5224 124.508 21.2215C124.508 20.924 124.624 20.6688 124.857 20.4558C125.094 20.2394 125.377 20.1312 125.707 20.1312C126.038 20.1312 126.319 20.2394 126.552 20.4558C126.788 20.6688 126.907 20.924 126.907 21.2215C126.907 21.5224 126.788 21.781 126.552 21.9974C126.319 22.2103 126.038 22.3168 125.707 22.3168ZM128.634 31.11V20.7246H130.856V24.6292H130.924C131.021 24.4196 131.162 24.2066 131.346 23.9903C131.534 23.7705 131.777 23.588 132.076 23.4426C132.379 23.2938 132.754 23.2195 133.203 23.2195C133.787 23.2195 134.326 23.3682 134.819 23.6657C135.313 23.9598 135.708 24.4044 136.003 24.9994C136.299 25.591 136.447 26.3331 136.447 27.2256C136.447 28.0944 136.302 28.8281 136.014 29.4264C135.728 30.0214 135.339 30.4727 134.846 30.7804C134.355 31.0846 133.806 31.2368 133.198 31.2368C132.767 31.2368 132.399 31.1675 132.097 31.0289C131.798 30.8902 131.553 30.7161 131.362 30.5066C131.17 30.2935 131.025 30.0789 130.924 29.8625H130.825V31.11H128.634ZM130.809 27.2154C130.809 27.6786 130.875 28.0826 131.007 28.4274C131.139 28.7723 131.33 29.041 131.581 29.2337C131.831 29.423 132.136 29.5177 132.493 29.5177C132.855 29.5177 133.161 29.4213 133.411 29.2287C133.662 29.0326 133.851 28.7621 133.98 28.4173C134.112 28.0691 134.178 27.6685 134.178 27.2154C134.178 26.7658 134.113 26.3703 133.985 26.0288C133.856 25.6874 133.667 25.4203 133.416 25.2276C133.166 25.0349 132.858 24.9385 132.493 24.9385C132.132 24.9385 131.826 25.0315 131.575 25.2175C131.329 25.4034 131.139 25.6671 131.007 26.0086C130.875 26.35 130.809 26.7523 130.809 27.2154ZM137.929 31.11V23.3209H140.083V24.6799H140.166C140.313 24.1965 140.558 23.8314 140.902 23.5846C141.246 23.3344 141.642 23.2093 142.091 23.2093C142.202 23.2093 142.322 23.2161 142.451 23.2296C142.58 23.2431 142.692 23.2618 142.79 23.2854V25.2023C142.686 25.1718 142.541 25.1448 142.357 25.1211C142.173 25.0975 142.004 25.0856 141.851 25.0856C141.524 25.0856 141.232 25.1549 140.975 25.2935C140.721 25.4287 140.519 25.6181 140.37 25.8615C140.224 26.1049 140.151 26.3855 140.151 26.7033V31.11H137.929ZM145.993 31.2571C145.482 31.2571 145.027 31.1708 144.627 30.9984C144.227 30.8227 143.911 30.564 143.678 30.2225C143.448 29.8777 143.333 29.4484 143.333 28.9345C143.333 28.5018 143.415 28.1384 143.579 27.8443C143.742 27.5501 143.964 27.3135 144.246 27.1343C144.528 26.9551 144.848 26.8199 145.206 26.7286C145.567 26.6373 145.946 26.5731 146.343 26.5359C146.809 26.4886 147.184 26.4447 147.469 26.4041C147.754 26.3602 147.961 26.2959 148.09 26.2114C148.219 26.1269 148.283 26.0018 148.283 25.8361V25.8057C148.283 25.4845 148.179 25.2361 147.97 25.0603C147.765 24.8845 147.473 24.7966 147.094 24.7966C146.694 24.7966 146.375 24.8828 146.139 25.0552C145.903 25.2242 145.747 25.4372 145.67 25.6942L143.615 25.5319C143.719 25.0586 143.924 24.6495 144.231 24.3047C144.537 23.9565 144.931 23.6894 145.415 23.5034C145.901 23.3141 146.465 23.2195 147.104 23.2195C147.549 23.2195 147.975 23.2702 148.382 23.3716C148.792 23.4731 149.155 23.6302 149.472 23.8432C149.792 24.0562 150.044 24.3301 150.228 24.6647C150.413 24.996 150.504 25.3933 150.504 25.8564V31.11H148.397V30.0299H148.335C148.207 30.2733 148.034 30.4879 147.818 30.6739C147.603 30.8564 147.344 31.0001 147.042 31.1049C146.739 31.2063 146.39 31.2571 145.993 31.2571ZM146.629 29.7662C146.957 29.7662 147.245 29.7036 147.495 29.5786C147.745 29.4501 147.942 29.2777 148.085 29.0613C148.227 28.8449 148.298 28.5998 148.298 28.326V27.4995C148.229 27.5434 148.133 27.584 148.011 27.6211C147.893 27.6549 147.76 27.6871 147.61 27.7175C147.461 27.7445 147.311 27.7699 147.162 27.7936C147.012 27.8138 146.876 27.8324 146.755 27.8493C146.494 27.8865 146.266 27.9457 146.071 28.0268C145.877 28.1079 145.726 28.2178 145.618 28.3565C145.51 28.4917 145.456 28.6607 145.456 28.8635C145.456 29.1577 145.566 29.3825 145.785 29.538C146.007 29.6901 146.289 29.7662 146.629 29.7662ZM152.228 31.11V23.3209H154.382V24.6799H154.466C154.611 24.1965 154.857 23.8314 155.201 23.5846C155.545 23.3344 155.941 23.2093 156.39 23.2093C156.501 23.2093 156.621 23.2161 156.75 23.2296C156.878 23.2431 156.992 23.2618 157.089 23.2854V25.2023C156.985 25.1718 156.84 25.1448 156.656 25.1211C156.472 25.0975 156.303 25.0856 156.15 25.0856C155.823 25.0856 155.531 25.1549 155.274 25.2935C155.02 25.4287 154.819 25.6181 154.669 25.8615C154.523 26.1049 154.45 26.3855 154.45 26.7033V31.11H152.228ZM159.853 34.0309C159.571 34.0309 159.307 34.0089 159.06 33.965C158.817 33.9244 158.615 33.872 158.455 33.8078L158.956 32.1952C159.217 32.2729 159.452 32.3152 159.66 32.322C159.872 32.3287 160.055 32.2814 160.207 32.18C160.364 32.0785 160.491 31.9062 160.588 31.6627L160.719 31.3331L157.845 23.3209H160.182L161.84 29.041H161.924L163.598 23.3209H165.95L162.836 31.9518C162.687 32.371 162.483 32.7361 162.226 33.0471C161.972 33.3615 161.65 33.6032 161.261 33.7723C160.872 33.9447 160.402 34.0309 159.853 34.0309Z" fill="#5E5E5E"/>
<path d="M174.662 79.05H28.8479C26.5305 79.05 24.6519 80.8767 24.6519 83.13V86.7C24.6519 88.9533 26.5305 90.78 28.8479 90.78H174.662C176.979 90.78 178.858 88.9533 178.858 86.7V83.13C178.858 80.8767 176.979 79.05 174.662 79.05Z" fill="#EEEEEE"/>
<path d="M122.211 56.61H28.8479C26.5305 56.61 24.6519 58.4367 24.6519 60.69V64.26C24.6519 66.5133 26.5305 68.34 28.8479 68.34H122.211C124.528 68.34 126.407 66.5133 126.407 64.26V60.69C126.407 58.4367 124.528 56.61 122.211 56.61Z" fill="#EEEEEE"/>
<path d="M185.676 109.14H137.946C135.629 109.14 133.75 110.967 133.75 113.22V122.91C133.75 125.163 135.629 126.99 137.946 126.99H185.676C187.994 126.99 189.873 125.163 189.873 122.91V113.22C189.873 110.967 187.994 109.14 185.676 109.14Z" fill="#5071F8"/>
<path d="M154.287 116.095C154.257 115.803 154.129 115.576 153.903 115.415C153.677 115.252 153.37 115.172 152.983 115.172C152.72 115.172 152.497 115.208 152.316 115.28C152.135 115.35 151.996 115.448 151.899 115.574C151.804 115.699 151.757 115.842 151.757 116.001C151.752 116.134 151.781 116.25 151.843 116.349C151.908 116.448 151.996 116.533 152.107 116.606C152.219 116.676 152.348 116.737 152.495 116.79C152.641 116.841 152.798 116.885 152.964 116.921L153.649 117.081C153.983 117.153 154.288 117.249 154.566 117.37C154.844 117.491 155.085 117.64 155.289 117.816C155.493 117.992 155.65 118.2 155.762 118.439C155.876 118.678 155.934 118.952 155.937 119.261C155.934 119.715 155.815 120.109 155.579 120.442C155.346 120.773 155.008 121.03 154.566 121.213C154.126 121.394 153.596 121.485 152.975 121.485C152.36 121.485 151.823 121.393 151.366 121.21C150.912 121.026 150.556 120.755 150.3 120.395C150.047 120.033 149.914 119.585 149.902 119.051H151.463C151.48 119.3 151.554 119.507 151.683 119.674C151.814 119.838 151.989 119.963 152.208 120.047C152.429 120.129 152.679 120.17 152.957 120.17C153.23 120.17 153.467 120.131 153.668 120.054C153.872 119.977 154.03 119.869 154.141 119.732C154.253 119.594 154.309 119.436 154.309 119.257C154.309 119.091 154.258 118.951 154.156 118.837C154.057 118.724 153.911 118.627 153.717 118.547C153.526 118.468 153.291 118.395 153.013 118.33L152.182 118.127C151.539 117.975 151.031 117.737 150.658 117.414C150.286 117.09 150.101 116.654 150.103 116.106C150.101 115.657 150.224 115.265 150.472 114.929C150.723 114.593 151.067 114.331 151.504 114.143C151.941 113.954 152.438 113.861 152.994 113.861C153.56 113.861 154.054 113.954 154.477 114.143C154.901 114.331 155.231 114.593 155.467 114.929C155.703 115.265 155.825 115.653 155.832 116.095H154.287ZM158.624 121.485C158.259 121.485 157.933 121.423 157.648 121.3C157.362 121.175 157.136 120.99 156.97 120.746C156.806 120.5 156.724 120.193 156.724 119.826C156.724 119.517 156.782 119.257 156.899 119.047C157.016 118.837 157.175 118.668 157.376 118.54C157.577 118.412 157.806 118.315 158.061 118.251C158.32 118.185 158.59 118.139 158.874 118.113C159.206 118.079 159.474 118.048 159.678 118.019C159.882 117.987 160.03 117.942 160.121 117.881C160.213 117.821 160.259 117.731 160.259 117.613V117.591C160.259 117.362 160.185 117.184 160.035 117.059C159.889 116.933 159.68 116.871 159.41 116.871C159.124 116.871 158.897 116.932 158.728 117.055C158.559 117.176 158.447 117.328 158.393 117.512L156.925 117.396C157 117.058 157.146 116.765 157.365 116.519C157.583 116.27 157.865 116.08 158.21 115.947C158.558 115.811 158.96 115.744 159.417 115.744C159.735 115.744 160.04 115.78 160.33 115.853C160.623 115.925 160.882 116.037 161.109 116.189C161.337 116.342 161.517 116.537 161.649 116.776C161.78 117.013 161.846 117.296 161.846 117.627V121.38H160.341V120.608H160.297C160.204 120.782 160.082 120.936 159.927 121.068C159.774 121.199 159.589 121.301 159.372 121.376C159.156 121.449 158.907 121.485 158.624 121.485ZM159.078 120.42C159.312 120.42 159.518 120.375 159.697 120.286C159.875 120.194 160.016 120.071 160.118 119.917C160.219 119.762 160.27 119.587 160.27 119.391V118.801C160.221 118.833 160.152 118.862 160.065 118.888C159.981 118.912 159.885 118.935 159.778 118.957C159.672 118.976 159.565 118.994 159.458 119.011C159.351 119.026 159.254 119.039 159.168 119.051C158.981 119.077 158.819 119.12 158.68 119.178C158.541 119.235 158.432 119.314 158.355 119.413C158.279 119.51 158.24 119.631 158.24 119.776C158.24 119.986 158.318 120.146 158.475 120.257C158.634 120.366 158.835 120.42 159.078 120.42ZM168.207 115.816L166.206 121.38H164.418L162.418 115.816H164.094L165.283 119.797H165.342L166.527 115.816H168.207ZM171.442 121.489C170.853 121.489 170.347 121.373 169.922 121.141C169.5 120.907 169.175 120.576 168.946 120.148C168.718 119.718 168.604 119.21 168.604 118.623C168.604 118.051 168.718 117.549 168.946 117.117C169.175 116.684 169.496 116.348 169.911 116.106C170.328 115.865 170.818 115.744 171.379 115.744C171.757 115.744 172.108 115.803 172.433 115.921C172.761 116.037 173.046 116.212 173.29 116.447C173.536 116.681 173.727 116.976 173.864 117.331C174 117.683 174.069 118.096 174.069 118.569V118.993H169.237V118.037H172.575C172.575 117.815 172.525 117.618 172.426 117.446C172.326 117.275 172.188 117.141 172.012 117.044C171.838 116.945 171.636 116.896 171.405 116.896C171.164 116.896 170.95 116.95 170.764 117.059C170.581 117.165 170.436 117.309 170.332 117.49C170.228 117.669 170.174 117.868 170.172 118.087V118.997C170.172 119.272 170.224 119.51 170.328 119.71C170.435 119.911 170.585 120.065 170.779 120.174C170.973 120.282 171.203 120.337 171.468 120.337C171.644 120.337 171.806 120.313 171.953 120.264C172.099 120.216 172.224 120.144 172.329 120.047C172.433 119.95 172.512 119.832 172.567 119.692L174.035 119.786C173.961 120.129 173.808 120.428 173.577 120.684C173.348 120.938 173.053 121.136 172.69 121.278C172.33 121.419 171.914 121.489 171.442 121.489Z" fill="white"/>
</svg>
