<svg width="182" height="122" viewBox="0 0 182 122" fill="none" xmlns="http://www.w3.org/2000/svg">
<path d="M11.4442 110.764V79.6007H0V72.3587H31.1651V79.6007H19.7209V110.764H11.4442Z" fill="#5534DA"/>
<path d="M49.358 110.764V105.003L48.8471 103.741V93.4266C48.8471 91.5978 48.3192 90.1713 47.2633 89.1472C46.2415 88.123 44.6577 87.6109 42.5119 87.6109C41.0473 87.6109 39.5998 87.867 38.1693 88.379C36.7728 88.8545 35.5807 89.5129 34.5929 90.3542L31.7319 84.3739C33.2305 83.2401 35.0357 82.3623 37.1474 81.7405C39.2592 81.1187 41.405 80.8078 43.5848 80.8078C47.7742 80.8078 51.027 81.8685 53.3431 83.9899C55.6592 86.1113 56.8172 89.4215 56.8172 93.9204V110.764H49.358ZM40.9792 111.203C38.8334 111.203 36.9942 110.819 35.4615 110.05C33.9288 109.246 32.7537 108.167 31.9362 106.813C31.1188 105.46 30.7101 103.942 30.7101 102.26C30.7101 100.504 31.1017 98.9679 31.8851 97.6511C32.7026 96.3344 33.9798 95.3102 35.7169 94.5787C37.454 93.8106 39.719 93.4266 42.5119 93.4266H49.8179V98.4192H43.3805C41.5072 98.4192 40.2129 98.7484 39.4976 99.4068C38.8164 100.065 38.4758 100.888 38.4758 101.876C38.4758 102.973 38.8675 103.851 39.6509 104.509C40.4683 105.131 41.5753 105.442 42.9717 105.442C44.3001 105.442 45.4922 105.113 46.5481 104.454C47.6039 103.759 48.3703 102.754 48.8471 101.437L50.0733 105.387C49.4943 107.289 48.4384 108.734 46.9057 109.721C45.373 110.709 43.3975 111.203 40.9792 111.203Z" fill="#5534DA"/>
<path d="M72.1168 111.203C69.7666 111.203 67.5016 110.91 65.3217 110.325C63.1759 109.703 61.4729 108.935 60.2127 108.02L62.8694 101.876C64.1296 102.717 65.6113 103.412 67.3143 103.961C69.0513 104.473 70.7544 104.729 72.4233 104.729C74.2626 104.729 75.5568 104.491 76.3062 104.015C77.0896 103.54 77.4812 102.882 77.4812 102.04C77.4812 101.345 77.1747 100.833 76.5616 100.504C75.9826 100.138 75.1992 99.864 74.2115 99.6811C73.2237 99.4982 72.1338 99.3153 70.9417 99.1325C69.7836 98.9496 68.6086 98.7118 67.4164 98.4192C66.2243 98.09 65.1344 97.6146 64.1467 96.9928C63.1589 96.371 62.3585 95.5297 61.7454 94.469C61.1664 93.4083 60.8769 92.0367 60.8769 90.3542C60.8769 88.4888 61.3708 86.8428 62.3585 85.4164C63.3803 83.9899 64.8449 82.8743 66.7523 82.0696C68.6597 81.2284 70.9417 80.8078 73.5984 80.8078C75.4717 80.8078 77.3791 81.0272 79.3205 81.4661C81.2619 81.9051 82.8798 82.5451 84.1741 83.3864L81.5174 89.4763C80.189 88.6351 78.8437 88.0682 77.4812 87.7755C76.1529 87.4464 74.8586 87.2818 73.5984 87.2818C71.8272 87.2818 70.533 87.5378 69.7155 88.0499C68.8981 88.5619 68.4893 89.2203 68.4893 90.025C68.4893 90.7565 68.7789 91.3051 69.3579 91.6709C69.971 92.0367 70.7714 92.3293 71.7591 92.5487C72.7469 92.7682 73.8198 92.9694 74.9778 93.1522C76.1699 93.2986 77.362 93.5363 78.5541 93.8655C79.7463 94.1947 80.8191 94.6702 81.7728 95.292C82.7606 95.8772 83.561 96.7001 84.1741 97.7609C84.7872 98.785 85.0937 100.138 85.0937 101.821C85.0937 103.65 84.5828 105.277 83.561 106.704C82.5392 108.094 81.0576 109.191 79.1161 109.996C77.2088 110.8 74.8756 111.203 72.1168 111.203Z" fill="#5534DA"/>
<path d="M95.4407 104.729L95.645 94.3044L108.469 81.2467H117.972L105.659 94.6885L101.52 98.3095L95.4407 104.729ZM88.85 110.764V70.0543H96.8201V110.764H88.85ZM109.337 110.764L100.039 98.3644L105.046 91.7258L118.993 110.764H109.337Z" fill="#5534DA"/>
<path d="M121.416 110.764V81.2467H129.387V110.764H121.416ZM125.402 77.1319C123.937 77.1319 122.745 76.6746 121.825 75.7602C120.906 74.8458 120.446 73.712 120.446 72.3587C120.446 71.0053 120.906 69.8715 121.825 68.9571C122.745 68.0427 123.937 67.5854 125.402 67.5854C126.866 67.5854 128.058 68.0244 128.978 68.9022C129.897 69.7435 130.357 70.8407 130.357 72.1941C130.357 73.6205 129.897 74.8093 128.978 75.7602C128.092 76.6746 126.9 77.1319 125.402 77.1319Z" fill="#5534DA"/>
<path d="M136.593 110.764V80.5883C136.593 77.2599 137.513 74.6081 139.352 72.633C141.191 70.6213 143.814 69.6154 147.22 69.6154C148.378 69.6154 149.485 69.7434 150.541 69.9995C151.631 70.2555 152.55 70.6579 153.3 71.2065L151.205 77.4062C150.762 77.077 150.268 76.821 149.723 76.6381C149.178 76.4552 148.599 76.3638 147.986 76.3638C146.828 76.3638 145.926 76.7295 145.278 77.461C144.665 78.156 144.359 79.2167 144.359 80.6432V83.3864L144.563 87.0623V110.764H136.593ZM132.353 88.4888V81.9051H151.409V88.4888H132.353Z" fill="#5534DA"/>
<path d="M158.192 121.846C156.761 121.846 155.348 121.609 153.951 121.133C152.555 120.658 151.414 119.999 150.528 119.158L153.44 113.068C154.054 113.653 154.752 114.11 155.535 114.44C156.353 114.769 157.153 114.933 157.936 114.933C159.06 114.933 159.946 114.641 160.593 114.056C161.274 113.507 161.887 112.574 162.432 111.257L163.863 107.636L164.476 106.704L174.336 81.2467H182L169.585 112.574C168.699 114.952 167.678 116.817 166.52 118.17C165.396 119.524 164.135 120.475 162.739 121.023C161.377 121.572 159.861 121.846 158.192 121.846ZM162.892 111.916L150.631 81.2467H158.856L168.359 105.936L162.892 111.916Z" fill="#5534DA"/>
<g clip-path="url(#clip0_125_231)">
<path d="M120.948 4.78548C120.926 4.74469 120.874 4.7175 120.821 4.7311C120.365 4.90784 119.909 5.0574 119.438 5.21376C118.144 5.64883 116.798 5.93434 115.452 6.21986C113.911 6.53257 112.341 6.75691 110.808 7.1036C109.484 7.39592 108.168 7.74942 106.897 8.21168C105.94 8.55158 104.997 8.91867 104.115 9.38774C103.068 9.91119 102.223 10.693 101.4 11.4679C100.645 12.1885 99.8821 12.9091 99.2166 13.7045C98.8427 14.1531 98.5286 14.6426 98.2294 15.1321C98.7006 13.5141 99.3587 11.8826 100.563 10.591C100.652 10.489 100.548 10.3667 100.421 10.421C100.114 10.557 99.8298 10.7337 99.5381 10.8969C97.3096 12.2701 95.3204 13.9764 93.6079 15.8595C92.7703 16.7908 91.9627 17.7425 91.2971 18.7826C90.5268 19.9994 89.9435 21.3115 89.5247 22.6643C89.4799 21.8621 89.5547 21.0599 89.6743 20.2646C89.6967 20.1218 89.7192 19.9858 89.7267 19.8431C89.7267 19.7479 89.7566 19.612 89.6519 19.5576C89.5771 19.5236 89.5023 19.5576 89.45 19.612C89.3827 19.6731 89.3303 19.7411 89.2705 19.8091C89.1508 19.9519 89.0312 20.1014 88.919 20.251C88.5451 20.7336 88.2086 21.2435 87.9169 21.7737C87.199 23.1129 86.5409 24.4657 85.8754 25.8253C85.2023 27.1849 84.5816 28.5717 83.931 29.9381C83.3103 31.2298 82.6298 32.501 81.9268 33.7586C81.5454 34.4316 81.1566 35.1046 80.7004 35.7437C80.506 36.0156 80.304 36.2807 80.0947 36.539C80.1246 36.4846 80.1545 36.437 80.1844 36.3827C80.7976 35.2882 81.2164 34.1189 81.5978 32.9429C81.9119 32.1883 82.226 31.4337 82.5774 30.6995C82.9887 29.8634 83.3552 29.0136 83.7067 28.1571C84.4096 26.5391 85.2621 24.9892 86.2343 23.4868C86.8625 22.5147 87.5355 21.563 88.1487 20.5773C88.7246 19.6527 89.1807 18.6738 89.7042 17.7289C90.0931 17.0219 90.4894 16.3149 90.826 15.5875C90.9232 15.3836 91.0204 15.1729 91.1101 14.9621C91.1475 14.8601 91.1924 14.7514 91.2148 14.6426C91.2148 14.6018 91.2223 14.5542 91.1924 14.5134C91.1251 14.4183 90.9905 14.4523 90.9082 14.5134C90.6689 14.6766 90.4446 14.8465 90.2127 15.0233C89.4649 15.6011 88.6872 16.145 87.887 16.6616C89.5995 14.7718 91.4242 12.8411 92.2468 10.4618C92.3067 10.2579 92.4712 9.74803 92.3067 9.57808C92.1945 9.48971 92.0674 9.61207 92 9.68685C91.3046 10.4754 90.5717 11.2368 89.7566 11.9234C90.0707 11.4747 90.3698 11.0125 90.639 10.5366C91.0877 9.72084 91.5289 8.89828 91.8953 8.04853C92.3291 7.00843 92.6581 5.94114 93.0021 4.88065C93.3536 3.72499 93.6677 2.55573 94.0491 1.40687C94.0865 1.2981 94.1239 1.18933 94.1463 1.07376C94.1463 1.03977 94.1613 0.998984 94.1463 0.964994C94.1239 0.903812 94.0416 0.863024 93.9743 0.883418C93.9145 0.897014 93.8547 0.931004 93.8023 0.971792C93.0395 1.6244 92.359 2.35179 91.6261 3.02479C91.0877 3.52785 90.5418 4.0377 90.0258 4.56115C88.9863 5.63523 88.059 6.80449 87.3261 8.06892C86.6606 9.21779 86.1745 10.4618 85.8754 11.7331C85.4715 13.3918 85.3369 15.0913 85.0827 16.7704C84.791 16.043 84.619 15.2748 84.5816 14.493C84.5667 14.2347 84.5517 13.9628 84.5367 13.6841C84.5367 13.5549 84.5367 13.2762 84.3199 13.3374C84.2526 13.3714 84.2152 13.4394 84.1778 13.5073C84.1105 13.6297 84.0507 13.7589 83.9908 13.888C83.8039 14.2823 83.5945 14.663 83.4 15.0505C82.8467 16.1382 82.368 17.2666 82.1213 18.4427C81.9044 19.408 81.7922 20.3937 81.7922 21.3726C81.7922 22.7458 82.024 24.0986 82.0166 25.4786C81.6053 24.8736 81.1865 24.2618 81.0145 23.5548C80.9247 23.2217 80.8574 22.8886 80.7976 22.5555C80.7827 22.4603 80.7602 22.3584 80.7453 22.2632C80.7303 22.1952 80.7303 22.1068 80.6705 22.0592C80.5359 21.9641 80.4461 22.1272 80.4162 22.2292C80.162 22.9634 80.0348 23.7384 80.0049 24.5133C79.9675 25.2951 80.0498 26.0769 80.132 26.8586C80.2068 27.5656 80.2891 28.2726 80.3414 28.9864C80.304 29.2447 80.2891 29.5031 80.2667 29.7614C80.1769 31.0326 80.0199 32.3039 79.7507 33.5547C79.5712 34.5608 79.3394 35.5533 78.9505 36.5186C78.7261 37.2052 78.4345 37.8714 78.068 38.5036C78.0082 38.592 77.9559 38.6872 77.9035 38.7756C77.1781 39.9516 76.5126 41.1549 75.7797 42.3241C75.3385 43.0107 74.9122 43.7109 74.5159 44.4247C74.2242 44.887 73.955 45.3561 73.7232 45.8387C73.5213 46.2466 73.3268 46.6613 73.1474 47.076C73.08 47.2527 72.8856 47.6062 72.9903 47.7829C73.1474 47.9121 73.2745 47.7422 73.3717 47.5586C73.3941 47.5382 73.4166 47.5178 73.4315 47.4974C73.4914 47.4226 73.5437 47.3479 73.5886 47.2663C73.7082 47.0827 73.8279 46.906 73.94 46.7293C74.4336 45.9475 74.9122 45.1589 75.3983 44.3703C76.1237 43.1467 76.9164 41.957 77.7166 40.7674C77.8512 40.5702 77.9783 40.3731 78.1129 40.1692C78.2774 39.9516 78.442 39.7409 78.614 39.5234C78.9206 39.1427 79.2496 38.7756 79.6086 38.4357C80.0498 37.9938 80.6032 37.5655 81.1192 37.1916C81.867 36.641 82.54 36.0156 83.1981 35.3834C84.7312 33.8674 86.1745 32.2767 87.6701 30.7267C88.6647 29.639 89.7341 28.5921 90.8783 27.6404C91.7234 26.9946 92.5983 26.376 93.4882 25.7846C94.9091 24.86 96.4047 24.0375 97.8181 23.0993C99.4858 21.9913 101.116 20.8356 102.612 19.5372C102.657 19.4896 102.709 19.4352 102.679 19.3672C102.649 19.2789 102.529 19.2924 102.447 19.3128C102.111 19.3944 101.789 19.5168 101.46 19.5916C101.124 19.6595 100.78 19.7207 100.443 19.7751C99.5232 19.9383 98.5809 20.0062 97.6461 20.013C98.1771 19.8295 98.7155 19.6527 99.254 19.4896C100.593 19.1225 101.946 18.8098 103.255 18.3611C105.581 17.6337 107.615 16.3285 109.477 14.8941C109.933 14.5474 110.397 14.2007 110.815 13.8132C110.89 13.7317 111.002 13.6569 111.017 13.5413C111.017 13.4054 110.838 13.4054 110.726 13.4326C109.679 13.6365 108.624 13.8336 107.562 13.9356C106.859 13.9968 106.126 14.0444 105.424 13.9288C106.239 13.7045 107.061 13.5073 107.899 13.351C108.677 13.2082 109.462 13.0723 110.217 12.8615C111.391 12.5488 112.446 11.937 113.343 11.1892C113.881 10.7201 114.382 10.2171 114.876 9.70725C115.4 9.1634 115.871 8.57877 116.424 8.05533C117.149 7.36193 117.942 6.72971 118.787 6.16548C119.415 5.71681 120.088 5.33612 120.784 4.97582C120.836 4.94863 120.889 4.93504 120.941 4.90784C120.986 4.88065 121.001 4.83307 120.978 4.78548H120.948ZM80.0797 37.0829C80.0797 37.0829 80.0797 37.0829 80.0647 37.0829H80.0722H80.0797ZM81.867 29.775C82.4428 28.0619 82.9962 26.342 83.5945 24.6357C84.1554 22.8886 84.7162 21.1415 85.307 19.408C85.9651 17.355 86.4886 15.268 87.184 13.2218C87.6776 11.7806 88.231 10.3531 88.8517 8.95266C89.4126 7.68823 90.0407 6.4442 90.8933 5.31573C90.1978 6.81809 89.4799 8.30685 88.8741 9.83641C88.2908 11.1756 87.7973 12.542 87.371 13.9288C86.3315 16.9947 85.7034 20.1626 84.7013 23.2353C84.275 24.5949 83.7964 25.9409 83.2804 27.2801C82.914 28.2386 82.4802 29.1972 82.1213 30.1557C81.3211 32.2835 80.5807 34.4316 79.6684 36.5254C79.6534 36.539 79.6385 36.5526 79.6235 36.5662C79.5936 36.5594 79.5637 36.5662 79.5413 36.573C79.6983 36.1243 79.8479 35.6689 79.975 35.2134C80.5807 33.3915 81.2463 31.5901 81.867 29.775V29.775ZM104.347 13.0655C103.479 13.6093 102.612 14.1531 101.789 14.7446C100.421 15.7371 99.0894 16.7636 97.7658 17.8037C96.9955 18.4291 96.3 19.1293 95.5747 19.8023C94.8567 20.4821 94.1313 21.1483 93.4508 21.8553C92.546 22.773 91.6187 23.6772 90.7512 24.6289C89.9884 25.4447 89.2929 26.3148 88.6049 27.1849C88.0964 27.8036 87.5804 28.4222 87.1018 29.0612C86.5334 29.8022 85.9427 30.5228 85.3743 31.2638C84.806 32.0115 84.2451 32.7593 83.6917 33.5139C83.3402 33.9898 82.9887 34.4724 82.5774 34.9143C82.0914 35.4377 81.5903 35.9884 81.0369 36.471C80.8275 36.641 80.6256 36.8109 80.4237 36.9877C80.4237 36.9877 80.4237 36.9877 80.4162 36.9877C80.319 36.9673 80.319 36.8857 80.3414 36.8177C80.7378 36.4167 81.1341 36.0224 81.523 35.6145C81.9941 35.1182 82.4204 34.588 82.8167 34.0441C84.9256 31.2434 87.0569 28.4494 89.3228 25.7438C90.1679 24.7445 91.0428 23.7587 91.9851 22.8342C93.6079 21.2707 95.283 19.7615 96.9581 18.2388C99.1193 16.2809 101.423 14.4455 103.928 12.8615C105.925 11.6379 108.048 10.591 110.24 9.68685C108.19 10.6862 106.276 11.903 104.347 13.0723V13.0655Z" fill="#5534DA"/>
<path d="M106.186 47.4628C106.127 47.5784 106.044 47.6804 105.955 47.7755C105.012 48.6661 103.621 49.1283 102.305 49.3663C100.974 49.6178 99.6056 49.3867 98.3044 49.1215C99.5981 48.1494 101.049 47.0142 101.341 45.4302C101.625 43.5336 99.658 42.3031 97.766 42.2216C91.4394 42.0312 85.726 45.1515 80.3641 47.8503C78.33 48.8632 76.0641 50.1616 73.6486 49.6518C73.3121 49.5634 72.9681 49.3663 72.8634 49.04C72.8708 48.9516 72.826 48.8496 72.7287 48.8088C71.9809 48.6729 72.5119 49.6314 72.8559 49.8013C75.8247 51.3445 79.9527 48.4825 82.5776 47.2453C85.2847 45.8993 88.0816 44.5397 91.0281 43.6627C93.4734 43.0033 96.3675 42.2691 98.8877 42.8878C100.174 43.2277 101.176 44.4513 100.765 45.6749C100.249 47.0889 98.9101 48.0882 97.6613 48.972C95.6945 48.5437 93.6529 48.0747 91.6188 48.3398C90.4971 48.5233 89.2034 48.8836 88.6425 49.8625C87.7675 51.4669 89.9587 51.7796 91.23 51.7456C93.6155 51.6776 95.8889 50.7871 97.7734 49.475C99.9122 49.9849 102.029 50.1752 104.115 49.3731C105.057 48.9788 106.127 48.5437 106.635 47.6668C106.792 47.4016 106.329 47.1841 106.179 47.4492L106.186 47.4628ZM91.1627 51.2901C90.4747 51.2425 89.2632 51.3309 88.9715 50.6307C88.9267 49.747 90.0035 49.2303 90.8112 49.006C92.8827 48.4349 95.0663 48.9108 97.1154 49.3459C95.3879 50.4947 93.3164 51.2357 91.1627 51.2901V51.2901Z" fill="#5534DA"/>
</g>
<defs>
<clipPath id="clip0_125_231">
<rect width="48.6087" height="50.8696" fill="white" transform="translate(72.3477 0.889771)"/>
</clipPath>
</defs>
</svg>
